<?xml version="1.0" encoding="UTF-8" standalone="no"?>
<!DOCTYPE svg PUBLIC "-//W3C//DTD SVG 1.1//EN"
 "http://www.w3.org/Graphics/SVG/1.1/DTD/svg11.dtd">
<!-- Generated by graphviz version 9.0.0 (20230911.1827)
 -->
<!-- Title: CorrespondenceMatcher.cpp Pages: 1 -->
<svg width="196pt" height="138pt"
 viewBox="0.00 0.00 196.00 137.75" xmlns="http://www.w3.org/2000/svg" xmlns:xlink="http://www.w3.org/1999/xlink">

<svg id="main" version="1.1" xmlns="http://www.w3.org/2000/svg" xmlns:xlink="http://www.w3.org/1999/xlink" xml:space="preserve" onload="init(evt)">
<style type="text/css"><![CDATA[
.node, .edge {opacity: 0.7;}
.node.selected, .edge.selected {opacity: 1;}
.edge:hover path { stroke: red; }
.edge:hover polygon { stroke: red; fill: red; }
]]></style>
<script type="application/ecmascript" xlink:href="svg.min.js"/>
<svg id="graph" class="graph">
<g id="graph0" class="graph" transform="scale(1 1) rotate(0) translate(4 133.75)">
<title>CorrespondenceMatcher.cpp</title>
<!-- Node1 -->
<g id="Node000001" class="node">
<title>Node1</title>
<g id="a_Node000001"><a xlink:title="Implementations for CorrespondenceMatcher.">
<polygon fill="#999999" stroke="#666666" points="141.25,-129.75 0.75,-129.75 0.75,-110.5 141.25,-110.5 141.25,-129.75"/>
<text text-anchor="middle" x="71" y="-116.25" font-family="Helvetica,sans-Serif" font-size="10.00">CorrespondenceMatcher.cpp</text>
</a>
</g>
</g>
<!-- Node2 -->
<g id="Node000002" class="node">
<title>Node2</title>
<g id="a_Node000002"><a xlink:title=" ">
<polygon fill="#e0e0e0" stroke="#999999" points="40,-74.5 0,-74.5 0,-55.25 40,-55.25 40,-74.5"/>
<text text-anchor="middle" x="20" y="-61" font-family="Helvetica,sans-Serif" font-size="10.00">pch.h</text>
</a>
</g>
</g>
<!-- Node1&#45;&gt;Node2 -->
<g id="edge1_Node000001_Node000002" class="edge">
<title>Node1&#45;&gt;Node2</title>
<g id="a_edge1_Node000001_Node000002"><a xlink:title=" ">
<path fill="none" stroke="#63b8ff" d="M62.58,-110.33C55.46,-102.9 45.06,-92.04 36.31,-82.91"/>
<polygon fill="#63b8ff" stroke="#63b8ff" points="39.1,-80.75 29.65,-75.95 34.04,-85.6 39.1,-80.75"/>
</a>
</g>
</g>
<!-- Node3 -->
<g id="Node000003" class="node">
<title>Node3</title>
<g id="a_Node000003"><a xlink:href="_correspondence_matcher_8h.html" target="_top" xlink:title="Utility class for computing point&#45;correspondences between two sets of points.">
<polygon fill="white" stroke="#666666" points="188,-74.5 58,-74.5 58,-55.25 188,-55.25 188,-74.5"/>
<text text-anchor="middle" x="123" y="-61" font-family="Helvetica,sans-Serif" font-size="10.00">CorrespondenceMatcher.h</text>
</a>
</g>
</g>
<!-- Node1&#45;&gt;Node3 -->
<g id="edge2_Node000001_Node000003" class="edge">
<title>Node1&#45;&gt;Node3</title>
<g id="a_edge2_Node000001_Node000003"><a xlink:title=" ">
<path fill="none" stroke="#63b8ff" d="M79.59,-110.33C86.84,-102.9 97.45,-92.04 106.37,-82.91"/>
<polygon fill="#63b8ff" stroke="#63b8ff" points="108.69,-85.54 113.17,-75.94 103.68,-80.65 108.69,-85.54"/>
</a>
</g>
</g>
<!-- Node4 -->
<g id="Node000004" class="node">
<title>Node4</title>
<g id="a_Node000004"><a xlink:title=" ">
<polygon fill="#e0e0e0" stroke="#999999" points="120.75,-19.25 49.25,-19.25 49.25,0 120.75,0 120.75,-19.25"/>
<text text-anchor="middle" x="85" y="-5.75" font-family="Helvetica,sans-Serif" font-size="10.00">Eigen/Dense</text>
</a>
</g>
</g>
<!-- Node3&#45;&gt;Node4 -->
<g id="edge3_Node000003_Node000004" class="edge">
<title>Node3&#45;&gt;Node4</title>
<g id="a_edge3_Node000003_Node000004"><a xlink:title=" ">
<path fill="none" stroke="#63b8ff" d="M116.73,-55.08C111.64,-47.96 104.3,-37.68 97.97,-28.8"/>
<polygon fill="#63b8ff" stroke="#63b8ff" points="100.95,-26.95 92.29,-20.84 95.25,-31.01 100.95,-26.95"/>
</a>
</g>
</g>
<!-- Node5 -->
<g id="Node000005" class="node">
<title>Node5</title>
<g id="a_Node000005"><a xlink:title=" ">
<polygon fill="#e0e0e0" stroke="#999999" points="181.5,-19.25 138.5,-19.25 138.5,0 181.5,0 181.5,-19.25"/>
<text text-anchor="middle" x="160" y="-5.75" font-family="Helvetica,sans-Serif" font-size="10.00">vector</text>
</a>
</g>
</g>
<!-- Node3&#45;&gt;Node5 -->
<g id="edge4_Node000003_Node000005" class="edge">
<title>Node3&#45;&gt;Node5</title>
<g id="a_edge4_Node000003_Node000005"><a xlink:title=" ">
<path fill="none" stroke="#63b8ff" d="M129.11,-55.08C134.06,-47.96 141.2,-37.68 147.37,-28.8"/>
<polygon fill="#63b8ff" stroke="#63b8ff" points="150.06,-31.06 152.89,-20.85 144.31,-27.07 150.06,-31.06"/>
</a>
</g>
</g>
</g>
</svg>
</svg>

<style type='text/css'>
<![CDATA[
[data-mouse-over-selected='false'] { opacity: 0.7; }
[data-mouse-over-selected='true']  { opacity: 1.0; }
]]>
</style>
<script type="application/ecmascript"><![CDATA[
document.addEventListener('DOMContentLoaded', (event) => {
  highlightEdges();
  highlightAdjacentNodes();
});
]]></script>
</svg>
