<?xml version="1.0" encoding="UTF-8" standalone="no"?>
<!DOCTYPE svg PUBLIC "-//W3C//DTD SVG 1.1//EN"
 "http://www.w3.org/Graphics/SVG/1.1/DTD/svg11.dtd">
<!-- Generated by graphviz version 9.0.0 (20230911.1827)
 -->
<!-- Title: HL2ResearchModeController.h Pages: 1 -->
<!--zoomable 204 -->

<svg id="main" version="1.1" xmlns="http://www.w3.org/2000/svg" xmlns:xlink="http://www.w3.org/1999/xlink" xml:space="preserve" onload="init(evt)">
<style type="text/css"><![CDATA[
.node, .edge {opacity: 0.7;}
.node.selected, .edge.selected {opacity: 1;}
.edge:hover path { stroke: red; }
.edge:hover polygon { stroke: red; fill: red; }
]]></style>

<defs>
  <circle id="rim" cx="0" cy="0" r="7"/>
  <circle id="rim2" cx="0" cy="0" r="3.5"/>
  <g id="zoomPlus">
    <use xlink:href="#rim" fill="#404040"><set attributeName="fill" to="#808080" begin="zoomplus.mouseover" end="zoomplus.mouseout"/></use>
    <path d="M-4,0h8M0,-4v8" fill="none" stroke="white" stroke-width="1.5" pointer-events="none"/>
  </g>
  <g id="zoomMin">
    <use xlink:href="#rim" fill="#404040"><set attributeName="fill" to="#808080" begin="zoomminus.mouseover" end="zoomminus.mouseout"/></use>
    <path d="M-4,0h8" fill="none" stroke="white" stroke-width="1.5" pointer-events="none"/>
  </g>
  <g id="arrowUp" transform="translate(30 24)">
    <use xlink:href="#rim"/>
    <path pointer-events="none" fill="none" stroke="white" stroke-width="1.5" d="M0,-3.0v7 M-2.5,-0.5L0,-3.0L2.5,-0.5"/>
  </g>
  <g id="arrowRight" transform="rotate(90) translate(36 -43)">
    <use xlink:href="#rim"/>
    <path pointer-events="none" fill="none" stroke="white" stroke-width="1.5" d="M0,-3.0v7 M-2.5,-0.5L0,-3.0L2.5,-0.5"/>
  </g>
  <g id="arrowDown" transform="rotate(180) translate(-30 -48)">
    <use xlink:href="#rim"/>
    <path pointer-events="none" fill="none" stroke="white" stroke-width="1.5" d="M0,-3.0v7 M-2.5,-0.5L0,-3.0L2.5,-0.5"/>
  </g>
  <g id="arrowLeft" transform="rotate(270) translate(-36 17)">
    <use xlink:href="#rim"/>
    <path pointer-events="none" fill="none" stroke="white" stroke-width="1.5" d="M0,-3.0v7 M-2.5,-0.5L0,-3.0L2.5,-0.5"/>
  </g>
  <g id="resetDef">
    <use xlink:href="#rim2" fill="#404040"><set attributeName="fill" to="#808080" begin="reset.mouseover" end="reset.mouseout"/></use>
  </g>
</defs>
<script type="application/ecmascript">
var viewWidth = 755;
var viewHeight = 204;
var sectionId = 'dynsection-0';
</script>
<script type="application/ecmascript" xlink:href="svg.min.js"/>
<svg id="graph" class="graph">
<g id="viewport">
<title>HL2ResearchModeController.h</title>
<!-- Node1 -->
<g id="Node000001" class="node">
<title>Node1</title>
<g id="a_Node000001"><a xlink:title="Function prototypes for the HL2ResearchMode class.">
<polygon fill="#999999" stroke="#666666" points="477.12,-196.25 329.12,-196.25 329.12,-177 477.12,-177 477.12,-196.25"/>
<text text-anchor="middle" x="403.12" y="-182.75" font-family="Helvetica,sans-Serif" font-size="10.00">HL2ResearchModeController.h</text>
</a>
</g>
</g>
<!-- Node2 -->
<g id="Node000002" class="node">
<title>Node2</title>
<g id="a_Node000002"><a xlink:title=" ">
<polygon fill="#e0e0e0" stroke="#999999" points="156.25,-135.38 0,-135.38 0,-116.12 156.25,-116.12 156.25,-135.38"/>
<text text-anchor="middle" x="78.12" y="-121.88" font-family="Helvetica,sans-Serif" font-size="10.00">HL2ResearchModeController.g.h</text>
</a>
</g>
</g>
<!-- Node1&#45;&gt;Node2 -->
<g id="edge1_Node000001_Node000002" class="edge">
<title>Node1&#45;&gt;Node2</title>
<g id="a_edge1_Node000001_Node000002"><a xlink:title=" ">
<path fill="none" stroke="#63b8ff" d="M353.06,-176.55C295.56,-166.14 201.23,-149.05 139.4,-137.85"/>
<polygon fill="#63b8ff" stroke="#63b8ff" points="140.2,-134.44 129.74,-136.1 138.96,-141.33 140.2,-134.44"/>
</a>
</g>
</g>
<!-- Node3 -->
<g id="Node000003" class="node">
<title>Node3</title>
<g id="a_Node000003"><a xlink:href="_holo2_i_r_tracker_8h.html" target="_top" xlink:title="Function prototypes for the HoloLens2 IR Tracker class.">
<polygon fill="white" stroke="#666666" points="266,-135.38 174.25,-135.38 174.25,-116.12 266,-116.12 266,-135.38"/>
<text text-anchor="middle" x="220.12" y="-121.88" font-family="Helvetica,sans-Serif" font-size="10.00">Holo2IRTracker.h</text>
</a>
</g>
</g>
<!-- Node1&#45;&gt;Node3 -->
<g id="edge2_Node000001_Node000003" class="edge">
<title>Node1&#45;&gt;Node3</title>
<g id="a_edge2_Node000001_Node000003"><a xlink:title=" ">
<path fill="none" stroke="#63b8ff" d="M374.93,-176.55C343.9,-166.57 293.82,-150.46 259.05,-139.27"/>
<polygon fill="#63b8ff" stroke="#63b8ff" points="260.38,-136.02 249.79,-136.29 258.24,-142.69 260.38,-136.02"/>
</a>
</g>
</g>
<!-- Node10 -->
<g id="Node000010" class="node">
<title>Node10</title>
<g id="a_Node000010"><a xlink:title=" ">
<polygon fill="#e0e0e0" stroke="#999999" points="388,-135.38 284.25,-135.38 284.25,-116.12 388,-116.12 388,-135.38"/>
<text text-anchor="middle" x="336.12" y="-121.88" font-family="Helvetica,sans-Serif" font-size="10.00">ResearchModeApi.h</text>
</a>
</g>
</g>
<!-- Node1&#45;&gt;Node10 -->
<g id="edge13_Node000001_Node000010" class="edge">
<title>Node1&#45;&gt;Node10</title>
<g id="a_edge13_Node000001_Node000010"><a xlink:title=" ">
<path fill="none" stroke="#63b8ff" d="M392.95,-176.68C382.91,-167.87 367.34,-154.18 355.03,-143.36"/>
<polygon fill="#63b8ff" stroke="#63b8ff" points="357.36,-140.75 347.53,-136.78 352.74,-146.01 357.36,-140.75"/>
</a>
</g>
</g>
<!-- Node11 -->
<g id="Node000011" class="node">
<title>Node11</title>
<g id="a_Node000011"><a xlink:title=" ">
<polygon fill="#e0e0e0" stroke="#999999" points="536.5,-141 405.75,-141 405.75,-110.5 536.5,-110.5 536.5,-141"/>
<text text-anchor="start" x="413.75" y="-127.5" font-family="Helvetica,sans-Serif" font-size="10.00">winrt/Windows.Perception.</text>
<text text-anchor="middle" x="471.12" y="-116.25" font-family="Helvetica,sans-Serif" font-size="10.00">Spatial.h</text>
</a>
</g>
</g>
<!-- Node1&#45;&gt;Node11 -->
<g id="edge14_Node000001_Node000011" class="edge">
<title>Node1&#45;&gt;Node11</title>
<g id="a_edge14_Node000001_Node000011"><a xlink:title=" ">
<path fill="none" stroke="#63b8ff" d="M413.45,-176.68C422.01,-169.27 434.55,-158.42 445.75,-148.72"/>
<polygon fill="#63b8ff" stroke="#63b8ff" points="447.93,-151.46 453.2,-142.27 443.35,-146.17 447.93,-151.46"/>
</a>
</g>
</g>
<!-- Node12 -->
<g id="Node000012" class="node">
<title>Node12</title>
<g id="a_Node000012"><a xlink:title=" ">
<polygon fill="#e0e0e0" stroke="#999999" points="685.5,-141 554.75,-141 554.75,-110.5 685.5,-110.5 685.5,-141"/>
<text text-anchor="start" x="562.75" y="-127.5" font-family="Helvetica,sans-Serif" font-size="10.00">winrt/Windows.Perception.</text>
<text text-anchor="middle" x="620.12" y="-116.25" font-family="Helvetica,sans-Serif" font-size="10.00">Spatial.Preview.h</text>
</a>
</g>
</g>
<!-- Node1&#45;&gt;Node12 -->
<g id="edge15_Node000001_Node000012" class="edge">
<title>Node1&#45;&gt;Node12</title>
<g id="a_edge15_Node000001_Node000012"><a xlink:title=" ">
<path fill="none" stroke="#63b8ff" d="M436.56,-176.55C468,-168.02 515.95,-155.01 554.96,-144.43"/>
<polygon fill="#63b8ff" stroke="#63b8ff" points="555.77,-147.84 564.5,-141.84 553.94,-141.08 555.77,-147.84"/>
</a>
</g>
</g>
<!-- Node13 -->
<g id="Node000013" class="node">
<title>Node13</title>
<g id="a_Node000013"><a xlink:title=" ">
<polygon fill="#e0e0e0" stroke="#999999" points="746.62,-135.38 703.62,-135.38 703.62,-116.12 746.62,-116.12 746.62,-135.38"/>
<text text-anchor="middle" x="725.12" y="-121.88" font-family="Helvetica,sans-Serif" font-size="10.00">mutex</text>
</a>
</g>
</g>
<!-- Node1&#45;&gt;Node13 -->
<g id="edge16_Node000001_Node000013" class="edge">
<title>Node1&#45;&gt;Node13</title>
<g id="a_edge16_Node000001_Node000013"><a xlink:title=" ">
<path fill="none" stroke="#63b8ff" d="M477.33,-179.99C536.89,-174.1 622.16,-162.59 694.12,-141 695.12,-140.7 696.12,-140.38 697.13,-140.03"/>
<polygon fill="#63b8ff" stroke="#63b8ff" points="698.37,-143.3 706.35,-136.33 695.76,-136.81 698.37,-143.3"/>
</a>
</g>
</g>
<!-- Node4 -->
<g id="Node000004" class="node">
<title>Node4</title>
<g id="a_Node000004"><a xlink:title=" ">
<polygon fill="#e0e0e0" stroke="#999999" points="113.88,-19.25 42.38,-19.25 42.38,0 113.88,0 113.88,-19.25"/>
<text text-anchor="middle" x="78.12" y="-5.75" font-family="Helvetica,sans-Serif" font-size="10.00">Eigen/Dense</text>
</a>
</g>
</g>
<!-- Node3&#45;&gt;Node4 -->
<g id="edge3_Node000003_Node000004" class="edge">
<title>Node3&#45;&gt;Node4</title>
<g id="a_edge3_Node000003_Node000004"><a xlink:title=" ">
<path fill="none" stroke="#63b8ff" d="M196.76,-115.67C176.62,-107.09 147.48,-92.81 126.12,-74.5 111,-61.54 97.74,-43.02 89.01,-29.25"/>
<polygon fill="#63b8ff" stroke="#63b8ff" points="92.01,-27.45 83.82,-20.73 86.03,-31.09 92.01,-27.45"/>
</a>
</g>
</g>
<!-- Node5 -->
<g id="Node000005" class="node">
<title>Node5</title>
<g id="a_Node000005"><a xlink:title=" ">
<polygon fill="#e0e0e0" stroke="#999999" points="175.62,-19.25 132.62,-19.25 132.62,0 175.62,0 175.62,-19.25"/>
<text text-anchor="middle" x="154.12" y="-5.75" font-family="Helvetica,sans-Serif" font-size="10.00">vector</text>
</a>
</g>
</g>
<!-- Node3&#45;&gt;Node5 -->
<g id="edge4_Node000003_Node000005" class="edge">
<title>Node3&#45;&gt;Node5</title>
<g id="a_edge4_Node000003_Node000005"><a xlink:title=" ">
<path fill="none" stroke="#63b8ff" d="M188.95,-115.69C169.15,-108.13 145.07,-95.2 133.12,-74.5 124.84,-60.14 132.21,-42.05 140.42,-28.79"/>
<polygon fill="#63b8ff" stroke="#63b8ff" points="143.26,-30.83 146.04,-20.61 137.49,-26.87 143.26,-30.83"/>
</a>
</g>
</g>
<!-- Node6 -->
<g id="Node000006" class="node">
<title>Node6</title>
<g id="a_Node000006"><a xlink:title=" ">
<polygon fill="#e0e0e0" stroke="#999999" points="228.5,-19.25 193.75,-19.25 193.75,0 228.5,0 228.5,-19.25"/>
<text text-anchor="middle" x="211.12" y="-5.75" font-family="Helvetica,sans-Serif" font-size="10.00">map</text>
</a>
</g>
</g>
<!-- Node3&#45;&gt;Node6 -->
<g id="edge5_Node000003_Node000006" class="edge">
<title>Node3&#45;&gt;Node6</title>
<g id="a_edge5_Node000003_Node000006"><a xlink:title=" ">
<path fill="none" stroke="#63b8ff" d="M225.27,-115.72C232.18,-102.43 242.95,-76.84 237.12,-55.25 234.62,-45.97 229.65,-36.63 224.72,-28.91"/>
<polygon fill="#63b8ff" stroke="#63b8ff" points="227.68,-27.04 219.12,-20.8 221.92,-31.02 227.68,-27.04"/>
</a>
</g>
</g>
<!-- Node7 -->
<g id="Node000007" class="node">
<title>Node7</title>
<g id="a_Node000007"><a xlink:title=" ">
<polygon fill="#e0e0e0" stroke="#999999" points="339.75,-19.25 246.5,-19.25 246.5,0 339.75,0 339.75,-19.25"/>
<text text-anchor="middle" x="293.12" y="-5.75" font-family="Helvetica,sans-Serif" font-size="10.00">opencv2/core.hpp</text>
</a>
</g>
</g>
<!-- Node3&#45;&gt;Node7 -->
<g id="edge6_Node000003_Node000007" class="edge">
<title>Node3&#45;&gt;Node7</title>
<g id="a_edge6_Node000003_Node000007"><a xlink:title=" ">
<path fill="none" stroke="#63b8ff" d="M225.85,-115.79C237.79,-97.13 265.55,-53.73 281.43,-28.91"/>
<polygon fill="#63b8ff" stroke="#63b8ff" points="284.17,-31.12 286.61,-20.81 278.27,-27.35 284.17,-31.12"/>
</a>
</g>
</g>
<!-- Node8 -->
<g id="Node000008" class="node">
<title>Node8</title>
<g id="a_Node000008"><a xlink:title=" ">
<polygon fill="#e0e0e0" stroke="#999999" points="380.12,-74.5 322.12,-74.5 322.12,-55.25 380.12,-55.25 380.12,-74.5"/>
<text text-anchor="middle" x="351.12" y="-61" font-family="Helvetica,sans-Serif" font-size="10.00">functional</text>
</a>
</g>
</g>
<!-- Node3&#45;&gt;Node8 -->
<g id="edge7_Node000003_Node000008" class="edge">
<title>Node3&#45;&gt;Node8</title>
<g id="a_edge7_Node000003_Node000008"><a xlink:title=" ">
<path fill="none" stroke="#63b8ff" d="M240.31,-115.68C261.81,-106.01 296.1,-90.6 320.85,-79.48"/>
<polygon fill="#63b8ff" stroke="#63b8ff" points="322.07,-82.77 329.75,-75.48 319.2,-76.39 322.07,-82.77"/>
</a>
</g>
</g>
<!-- Node9 -->
<g id="Node000009" class="node">
<title>Node9</title>
<g id="a_Node000009"><a xlink:href="_i_r_tracker_utils_8h.html" target="_top" xlink:title="Function prototypes for general utilities used by the Holo2IRTracker class. Implementations split in ...">
<polygon fill="white" stroke="#666666" points="228.38,-74.5 141.88,-74.5 141.88,-55.25 228.38,-55.25 228.38,-74.5"/>
<text text-anchor="middle" x="185.12" y="-61" font-family="Helvetica,sans-Serif" font-size="10.00">IRTrackerUtils.h</text>
</a>
</g>
</g>
<!-- Node3&#45;&gt;Node9 -->
<g id="edge8_Node000003_Node000009" class="edge">
<title>Node3&#45;&gt;Node9</title>
<g id="a_edge8_Node000003_Node000009"><a xlink:title=" ">
<path fill="none" stroke="#63b8ff" d="M214.81,-115.81C209.93,-107.6 202.53,-95.16 196.35,-84.75"/>
<polygon fill="#63b8ff" stroke="#63b8ff" points="199.38,-83.01 191.26,-76.2 193.37,-86.59 199.38,-83.01"/>
</a>
</g>
</g>
<!-- Node9&#45;&gt;Node4 -->
<g id="edge9_Node000009_Node000004" class="edge">
<title>Node9&#45;&gt;Node4</title>
<g id="a_edge9_Node000009_Node000004"><a xlink:title=" ">
<path fill="none" stroke="#63b8ff" d="M166.97,-54.84C150.45,-46.62 125.78,-34.34 106.63,-24.81"/>
<polygon fill="#63b8ff" stroke="#63b8ff" points="108.23,-21.7 97.72,-20.38 105.11,-27.97 108.23,-21.7"/>
</a>
</g>
</g>
<!-- Node9&#45;&gt;Node5 -->
<g id="edge11_Node000009_Node000005" class="edge">
<title>Node9&#45;&gt;Node5</title>
<g id="a_edge11_Node000009_Node000005"><a xlink:title=" ">
<path fill="none" stroke="#63b8ff" d="M180.01,-55.08C175.95,-48.11 170.13,-38.12 165.04,-29.37"/>
<polygon fill="#63b8ff" stroke="#63b8ff" points="168.17,-27.8 160.12,-20.92 162.12,-31.32 168.17,-27.8"/>
</a>
</g>
</g>
<!-- Node9&#45;&gt;Node6 -->
<g id="edge12_Node000009_Node000006" class="edge">
<title>Node9&#45;&gt;Node6</title>
<g id="a_edge12_Node000009_Node000006"><a xlink:title=" ">
<path fill="none" stroke="#63b8ff" d="M189.42,-55.08C192.75,-48.26 197.49,-38.56 201.69,-29.95"/>
<polygon fill="#63b8ff" stroke="#63b8ff" points="204.83,-31.49 206.07,-20.97 198.54,-28.42 204.83,-31.49"/>
</a>
</g>
</g>
<!-- Node9&#45;&gt;Node7 -->
<g id="edge10_Node000009_Node000007" class="edge">
<title>Node9&#45;&gt;Node7</title>
<g id="a_edge10_Node000009_Node000007"><a xlink:title=" ">
<path fill="none" stroke="#63b8ff" d="M203.45,-54.84C220.2,-46.58 245.26,-34.23 264.63,-24.68"/>
<polygon fill="#63b8ff" stroke="#63b8ff" points="265.94,-27.93 273.36,-20.37 262.84,-21.65 265.94,-27.93"/>
</a>
</g>
</g>
</g>
</svg>

<g id="navigator" transform="translate(0 0)" fill="#404254">
  <rect fill="#f2f5e9" fill-opacity="0.5" stroke="#606060" stroke-width=".5" x="0" y="0" width="60" height="60"/>
  <use id="zoomplus" xlink:href="#zoomPlus" x="17" y="9" onmousedown="handleZoom(evt,'in')"/>
  <use id="zoomminus" xlink:href="#zoomMin" x="42" y="9" onmousedown="handleZoom(evt,'out')"/>
  <use id="reset" xlink:href="#resetDef" x="30" y="36" onmousedown="handleReset()"/>
   <use id="arrowup" xlink:href="#arrowUp" x="0" y="0" onmousedown="handlePan(0,-1)"/>
  <use id="arrowright" xlink:href="#arrowRight" x="0" y="0" onmousedown="handlePan(1,0)"/>
  <use id="arrowdown" xlink:href="#arrowDown" x="0" y="0" onmousedown="handlePan(0,1)"/>
  <use id="arrowleft" xlink:href="#arrowLeft" x="0" y="0" onmousedown="handlePan(-1,0)"/>
</g>
<svg viewBox="0 0 15 15" width="100%" height="30px" preserveAspectRatio="xMaxYMin meet">
 <g id="arrow_out" transform="scale(0.3 0.3)">
  <a xlink:href="_h_l2_research_mode_controller_8h__incl_org.svg" target="_base">
   <rect id="button" ry="5" rx="5" y="6" x="6" height="38" width="38"
        fill="#f2f5e9" fill-opacity="0.5" stroke="#606060" stroke-width="1.0"/>
   <path id="arrow"
     d="M 11.500037,31.436501 C 11.940474,20.09759 22.043105,11.32322 32.158766,21.979434 L 37.068811,17.246167 C 37.068811,17.246167 37.088388,32 37.088388,32 L 22.160133,31.978069 C 22.160133,31.978069 26.997745,27.140456 26.997745,27.140456 C 18.528582,18.264221 13.291696,25.230495 11.500037,31.436501 z"
     style="fill:#404040;"/>
  </a>
 </g>
</svg>

<style type='text/css'>
<![CDATA[
[data-mouse-over-selected='false'] { opacity: 0.7; }
[data-mouse-over-selected='true']  { opacity: 1.0; }
]]>
</style>
<script type="application/ecmascript"><![CDATA[
document.addEventListener('DOMContentLoaded', (event) => {
  highlightEdges();
  highlightAdjacentNodes();
});
]]></script>
</svg>
