<?xml version="1.0" encoding="UTF-8" standalone="no"?>
<!DOCTYPE svg PUBLIC "-//W3C//DTD SVG 1.1//EN"
 "http://www.w3.org/Graphics/SVG/1.1/DTD/svg11.dtd">
<!-- Generated by graphviz version 9.0.0 (20230911.1827)
 -->
<!-- Title: Holo2IRTracker.cpp Pages: 1 -->
<svg width="748pt" height="193pt"
 viewBox="0.00 0.00 747.50 193.00" xmlns="http://www.w3.org/2000/svg" xmlns:xlink="http://www.w3.org/1999/xlink">
<g id="graph0" class="graph" transform="scale(1 1) rotate(0) translate(4 189)">
<title>Holo2IRTracker.cpp</title>
<!-- Node1 -->
<g id="Node000001" class="node">
<title>Node1</title>
<g id="a_Node000001"><a xlink:title="Implementations for Holo2IRTracker.">
<polygon fill="#999999" stroke="#666666" points="475.12,-185 372.88,-185 372.88,-165.75 475.12,-165.75 475.12,-185"/>
<text text-anchor="middle" x="424" y="-171.5" font-family="Helvetica,sans-Serif" font-size="10.00">Holo2IRTracker.cpp</text>
</a>
</g>
</g>
<!-- Node2 -->
<g id="Node000002" class="node">
<title>Node2</title>
<g id="a_Node000002"><a xlink:title=" ">
<polygon fill="#e0e0e0" stroke="#999999" points="40,-129.75 0,-129.75 0,-110.5 40,-110.5 40,-129.75"/>
<text text-anchor="middle" x="20" y="-116.25" font-family="Helvetica,sans-Serif" font-size="10.00">pch.h</text>
</a>
</g>
</g>
<!-- Node1&#45;&gt;Node2 -->
<g id="edge1_Node000001_Node000002" class="edge">
<title>Node1&#45;&gt;Node2</title>
<g id="a_edge1_Node000001_Node000002"><a xlink:title=" ">
<path fill="none" stroke="#63b8ff" d="M372.51,-170.27C300.74,-164.07 166.74,-150.76 54,-129.75 53.17,-129.6 52.33,-129.43 51.48,-129.26"/>
<polygon fill="#63b8ff" stroke="#63b8ff" points="52.4,-125.88 41.88,-127.09 50.86,-132.71 52.4,-125.88"/>
</a>
</g>
</g>
<!-- Node3 -->
<g id="Node000003" class="node">
<title>Node3</title>
<g id="a_Node000003"><a xlink:href="_holo2_i_r_tracker_8h.html" target="_top" xlink:title="Function prototypes for the HoloLens2 IR Tracker class.">
<polygon fill="white" stroke="#666666" points="469.88,-129.75 378.12,-129.75 378.12,-110.5 469.88,-110.5 469.88,-129.75"/>
<text text-anchor="middle" x="424" y="-116.25" font-family="Helvetica,sans-Serif" font-size="10.00">Holo2IRTracker.h</text>
</a>
</g>
</g>
<!-- Node1&#45;&gt;Node3 -->
<g id="edge2_Node000001_Node000003" class="edge">
<title>Node1&#45;&gt;Node3</title>
<g id="a_edge2_Node000001_Node000003"><a xlink:title=" ">
<path fill="none" stroke="#63b8ff" d="M424,-165.58C424,-159.07 424,-149.92 424,-141.62"/>
<polygon fill="#63b8ff" stroke="#63b8ff" points="427.5,-141.62 424,-131.62 420.5,-141.62 427.5,-141.62"/>
</a>
</g>
</g>
<!-- Node4 -->
<g id="Node000004" class="node">
<title>Node4</title>
<g id="a_Node000004"><a xlink:title=" ">
<polygon fill="#e0e0e0" stroke="#999999" points="188.75,-19.25 117.25,-19.25 117.25,0 188.75,0 188.75,-19.25"/>
<text text-anchor="middle" x="153" y="-5.75" font-family="Helvetica,sans-Serif" font-size="10.00">Eigen/Dense</text>
</a>
</g>
</g>
<!-- Node1&#45;&gt;Node4 -->
<g id="edge16_Node000001_Node000004" class="edge">
<title>Node1&#45;&gt;Node4</title>
<g id="a_edge16_Node000001_Node000004"><a xlink:title=" ">
<path fill="none" stroke="#63b8ff" d="M372.52,-165.52C292.76,-150.58 145.51,-117.72 117,-74.5 106.77,-58.98 119.92,-40.39 133.11,-27.27"/>
<polygon fill="#63b8ff" stroke="#63b8ff" points="135.42,-29.9 140.42,-20.56 130.69,-24.74 135.42,-29.9"/>
</a>
</g>
</g>
<!-- Node5 -->
<g id="Node000005" class="node">
<title>Node5</title>
<g id="a_Node000005"><a xlink:title=" ">
<polygon fill="#e0e0e0" stroke="#999999" points="332.5,-19.25 289.5,-19.25 289.5,0 332.5,0 332.5,-19.25"/>
<text text-anchor="middle" x="311" y="-5.75" font-family="Helvetica,sans-Serif" font-size="10.00">vector</text>
</a>
</g>
</g>
<!-- Node1&#45;&gt;Node5 -->
<g id="edge17_Node000001_Node000005" class="edge">
<title>Node1&#45;&gt;Node5</title>
<g id="a_edge17_Node000001_Node000005"><a xlink:title=" ">
<path fill="none" stroke="#63b8ff" d="M410.92,-165.35C399.21,-156.92 381.93,-143.58 369,-129.75 348.47,-107.8 343.12,-101.54 330,-74.5 323.19,-60.46 318.28,-43.48 315.16,-30.56"/>
<polygon fill="#63b8ff" stroke="#63b8ff" points="318.64,-30.11 313.04,-21.12 311.81,-31.64 318.64,-30.11"/>
</a>
</g>
</g>
<!-- Node6 -->
<g id="Node000006" class="node">
<title>Node6</title>
<g id="a_Node000006"><a xlink:title=" ">
<polygon fill="#e0e0e0" stroke="#999999" points="467.38,-19.25 432.62,-19.25 432.62,0 467.38,0 467.38,-19.25"/>
<text text-anchor="middle" x="450" y="-5.75" font-family="Helvetica,sans-Serif" font-size="10.00">map</text>
</a>
</g>
</g>
<!-- Node1&#45;&gt;Node6 -->
<g id="edge18_Node000001_Node000006" class="edge">
<title>Node1&#45;&gt;Node6</title>
<g id="a_edge18_Node000001_Node000006"><a xlink:title=" ">
<path fill="none" stroke="#63b8ff" d="M463.97,-165.28C507.6,-152.97 575.2,-126.3 605,-74.5 645.75,-3.67 591.57,-50.43 478.62,-19.78"/>
<polygon fill="#63b8ff" stroke="#63b8ff" points="479.9,-16.51 469.32,-17.1 477.96,-23.23 479.9,-16.51"/>
</a>
</g>
</g>
<!-- Node7 -->
<g id="Node000007" class="node">
<title>Node7</title>
<g id="a_Node000007"><a xlink:title=" ">
<polygon fill="#e0e0e0" stroke="#999999" points="578.62,-19.25 485.38,-19.25 485.38,0 578.62,0 578.62,-19.25"/>
<text text-anchor="middle" x="532" y="-5.75" font-family="Helvetica,sans-Serif" font-size="10.00">opencv2/core.hpp</text>
</a>
</g>
</g>
<!-- Node1&#45;&gt;Node7 -->
<g id="edge19_Node000001_Node000007" class="edge">
<title>Node1&#45;&gt;Node7</title>
<g id="a_edge19_Node000001_Node000007"><a xlink:title=" ">
<path fill="none" stroke="#63b8ff" d="M475.33,-167.64C526.54,-157.64 600.71,-133.23 623,-74.5 632.31,-49.97 606.07,-33.48 579.41,-23.4"/>
<polygon fill="#63b8ff" stroke="#63b8ff" points="580.88,-20.21 570.28,-20.23 578.57,-26.82 580.88,-20.21"/>
</a>
</g>
</g>
<!-- Node8 -->
<g id="Node000008" class="node">
<title>Node8</title>
<g id="a_Node000008"><a xlink:title=" ">
<polygon fill="#e0e0e0" stroke="#999999" points="596,-74.5 538,-74.5 538,-55.25 596,-55.25 596,-74.5"/>
<text text-anchor="middle" x="567" y="-61" font-family="Helvetica,sans-Serif" font-size="10.00">functional</text>
</a>
</g>
</g>
<!-- Node1&#45;&gt;Node8 -->
<g id="edge20_Node000001_Node000008" class="edge">
<title>Node1&#45;&gt;Node8</title>
<g id="a_edge20_Node000001_Node000008"><a xlink:title=" ">
<path fill="none" stroke="#63b8ff" d="M435.7,-165.5C459.9,-147.14 515.71,-104.79 546.2,-81.66"/>
<polygon fill="#63b8ff" stroke="#63b8ff" points="548.08,-84.62 553.93,-75.79 543.85,-79.05 548.08,-84.62"/>
</a>
</g>
</g>
<!-- Node10 -->
<g id="Node000010" class="node">
<title>Node10</title>
<g id="a_Node000010"><a xlink:href="_correspondence_matcher_8h.html" target="_top" xlink:title="Utility class for computing point&#45;correspondences between two sets of points.">
<polygon fill="white" stroke="#666666" points="264,-74.5 134,-74.5 134,-55.25 264,-55.25 264,-74.5"/>
<text text-anchor="middle" x="199" y="-61" font-family="Helvetica,sans-Serif" font-size="10.00">CorrespondenceMatcher.h</text>
</a>
</g>
</g>
<!-- Node1&#45;&gt;Node10 -->
<g id="edge13_Node000001_Node000010" class="edge">
<title>Node1&#45;&gt;Node10</title>
<g id="a_edge13_Node000001_Node000010"><a xlink:title=" ">
<path fill="none" stroke="#63b8ff" d="M378.82,-165.3C349.05,-158.2 309.83,-146.66 278,-129.75 254.27,-117.14 230.8,-96.91 215.69,-82.6"/>
<polygon fill="#63b8ff" stroke="#63b8ff" points="218.13,-80.09 208.52,-75.63 213.25,-85.11 218.13,-80.09"/>
</a>
</g>
</g>
<!-- Node11 -->
<g id="Node000011" class="node">
<title>Node11</title>
<g id="a_Node000011"><a xlink:title=" ">
<polygon fill="#e0e0e0" stroke="#999999" points="739.5,-129.75 690.5,-129.75 690.5,-110.5 739.5,-110.5 739.5,-129.75"/>
<text text-anchor="middle" x="715" y="-116.25" font-family="Helvetica,sans-Serif" font-size="10.00">Shiny.h</text>
</a>
</g>
</g>
<!-- Node1&#45;&gt;Node11 -->
<g id="edge21_Node000001_Node000011" class="edge">
<title>Node1&#45;&gt;Node11</title>
<g id="a_edge21_Node000001_Node000011"><a xlink:title=" ">
<path fill="none" stroke="#63b8ff" d="M475.28,-165.95C526.28,-157.41 606.71,-143.54 676,-129.75 677.01,-129.55 678.04,-129.34 679.07,-129.13"/>
<polygon fill="#63b8ff" stroke="#63b8ff" points="679.74,-132.57 688.79,-127.07 678.29,-125.72 679.74,-132.57"/>
</a>
</g>
</g>
<!-- Node3&#45;&gt;Node4 -->
<g id="edge3_Node000003_Node000004" class="edge">
<title>Node3&#45;&gt;Node4</title>
<g id="a_edge3_Node000003_Node000004"><a xlink:title=" ">
<path fill="none" stroke="#63b8ff" d="M377.83,-119.25C302.2,-118.37 157.08,-111.72 125,-74.5 113.2,-60.81 124.69,-41.36 136.31,-27.53"/>
<polygon fill="#63b8ff" stroke="#63b8ff" points="138.57,-30.24 142.71,-20.49 133.39,-25.53 138.57,-30.24"/>
</a>
</g>
</g>
<!-- Node3&#45;&gt;Node5 -->
<g id="edge4_Node000003_Node000005" class="edge">
<title>Node3&#45;&gt;Node5</title>
<g id="a_edge4_Node000003_Node000005"><a xlink:title=" ">
<path fill="none" stroke="#63b8ff" d="M403.02,-110.15C386.84,-102.46 364.64,-90.14 349,-74.5 336.03,-61.53 325.74,-43.26 319.16,-29.58"/>
<polygon fill="#63b8ff" stroke="#63b8ff" points="322.48,-28.42 315.15,-20.77 316.11,-31.32 322.48,-28.42"/>
</a>
</g>
</g>
<!-- Node3&#45;&gt;Node6 -->
<g id="edge5_Node000003_Node000006" class="edge">
<title>Node3&#45;&gt;Node6</title>
<g id="a_edge5_Node000003_Node000006"><a xlink:title=" ">
<path fill="none" stroke="#63b8ff" d="M432.22,-110.01C439.28,-101.52 448.96,-88.14 453,-74.5 457.21,-60.29 456.21,-43.53 454.3,-30.74"/>
<polygon fill="#63b8ff" stroke="#63b8ff" points="457.76,-30.21 452.5,-21.01 450.87,-31.48 457.76,-30.21"/>
</a>
</g>
</g>
<!-- Node3&#45;&gt;Node7 -->
<g id="edge6_Node000003_Node000007" class="edge">
<title>Node3&#45;&gt;Node7</title>
<g id="a_edge6_Node000003_Node000007"><a xlink:title=" ">
<path fill="none" stroke="#63b8ff" d="M432.99,-110.26C442.1,-101.28 456.57,-86.96 469,-74.5 484.91,-58.55 502.95,-40.24 515.63,-27.32"/>
<polygon fill="#63b8ff" stroke="#63b8ff" points="517.9,-30 522.41,-20.41 512.91,-25.1 517.9,-30"/>
</a>
</g>
</g>
<!-- Node3&#45;&gt;Node8 -->
<g id="edge7_Node000003_Node000008" class="edge">
<title>Node3&#45;&gt;Node8</title>
<g id="a_edge7_Node000003_Node000008"><a xlink:title=" ">
<path fill="none" stroke="#63b8ff" d="M448.26,-110.09C471.27,-101.52 506.09,-88.56 532.08,-78.88"/>
<polygon fill="#63b8ff" stroke="#63b8ff" points="533.05,-82.25 541.2,-75.48 530.61,-75.69 533.05,-82.25"/>
</a>
</g>
</g>
<!-- Node9 -->
<g id="Node000009" class="node">
<title>Node9</title>
<g id="a_Node000009"><a xlink:href="_i_r_tracker_utils_8h.html" target="_top" xlink:title="Function prototypes for general utilities used by the Holo2IRTracker class. Implementations split in ...">
<polygon fill="white" stroke="#666666" points="444.25,-74.5 357.75,-74.5 357.75,-55.25 444.25,-55.25 444.25,-74.5"/>
<text text-anchor="middle" x="401" y="-61" font-family="Helvetica,sans-Serif" font-size="10.00">IRTrackerUtils.h</text>
</a>
</g>
</g>
<!-- Node3&#45;&gt;Node9 -->
<g id="edge8_Node000003_Node000009" class="edge">
<title>Node3&#45;&gt;Node9</title>
<g id="a_edge8_Node000003_Node000009"><a xlink:title=" ">
<path fill="none" stroke="#63b8ff" d="M420.2,-110.33C417.26,-103.51 413.06,-93.81 409.35,-85.2"/>
<polygon fill="#63b8ff" stroke="#63b8ff" points="412.66,-84.04 405.48,-76.25 406.23,-86.82 412.66,-84.04"/>
</a>
</g>
</g>
<!-- Node9&#45;&gt;Node4 -->
<g id="edge9_Node000009_Node000004" class="edge">
<title>Node9&#45;&gt;Node4</title>
<g id="a_edge9_Node000009_Node000004"><a xlink:title=" ">
<path fill="none" stroke="#63b8ff" d="M358.65,-54.78C314.65,-45.33 245.96,-30.59 200.23,-20.77"/>
<polygon fill="#63b8ff" stroke="#63b8ff" points="201.12,-17.38 190.61,-18.7 199.65,-24.22 201.12,-17.38"/>
</a>
</g>
</g>
<!-- Node9&#45;&gt;Node5 -->
<g id="edge11_Node000009_Node000005" class="edge">
<title>Node9&#45;&gt;Node5</title>
<g id="a_edge11_Node000009_Node000005"><a xlink:title=" ">
<path fill="none" stroke="#63b8ff" d="M385.73,-54.84C372.16,-46.81 352.05,-34.91 336.1,-25.48"/>
<polygon fill="#63b8ff" stroke="#63b8ff" points="338.03,-22.55 327.64,-20.47 334.47,-28.58 338.03,-22.55"/>
</a>
</g>
</g>
<!-- Node9&#45;&gt;Node6 -->
<g id="edge12_Node000009_Node000006" class="edge">
<title>Node9&#45;&gt;Node6</title>
<g id="a_edge12_Node000009_Node000006"><a xlink:title=" ">
<path fill="none" stroke="#63b8ff" d="M409.09,-55.08C415.86,-47.73 425.72,-37.01 434.06,-27.94"/>
<polygon fill="#63b8ff" stroke="#63b8ff" points="436.51,-30.45 440.71,-20.72 431.36,-25.71 436.51,-30.45"/>
</a>
</g>
</g>
<!-- Node9&#45;&gt;Node7 -->
<g id="edge10_Node000009_Node000007" class="edge">
<title>Node9&#45;&gt;Node7</title>
<g id="a_edge10_Node000009_Node000007"><a xlink:title=" ">
<path fill="none" stroke="#63b8ff" d="M423.22,-54.84C444.02,-46.39 475.35,-33.65 499.05,-24.02"/>
<polygon fill="#63b8ff" stroke="#63b8ff" points="500.32,-27.28 508.27,-20.27 497.68,-20.8 500.32,-27.28"/>
</a>
</g>
</g>
<!-- Node10&#45;&gt;Node4 -->
<g id="edge14_Node000010_Node000004" class="edge">
<title>Node10&#45;&gt;Node4</title>
<g id="a_edge14_Node000010_Node000004"><a xlink:title=" ">
<path fill="none" stroke="#63b8ff" d="M191.4,-55.08C185.12,-47.8 175.99,-37.23 168.2,-28.23"/>
<polygon fill="#63b8ff" stroke="#63b8ff" points="170.94,-26.03 161.75,-20.75 165.64,-30.61 170.94,-26.03"/>
</a>
</g>
</g>
<!-- Node10&#45;&gt;Node5 -->
<g id="edge15_Node000010_Node000005" class="edge">
<title>Node10&#45;&gt;Node5</title>
<g id="a_edge15_Node000010_Node000005"><a xlink:title=" ">
<path fill="none" stroke="#63b8ff" d="M218,-54.84C235.46,-46.54 261.6,-34.11 281.72,-24.54"/>
<polygon fill="#63b8ff" stroke="#63b8ff" points="283.01,-27.81 290.54,-20.35 280.01,-21.49 283.01,-27.81"/>
</a>
</g>
</g>
</g>
</svg>
