<?xml version="1.0" encoding="UTF-8" standalone="no"?>
<!DOCTYPE svg PUBLIC "-//W3C//DTD SVG 1.1//EN"
 "http://www.w3.org/Graphics/SVG/1.1/DTD/svg11.dtd">
<!-- Generated by graphviz version 9.0.0 (20230911.1827)
 -->
<!-- Title: Holo2IRTracker.h Pages: 1 -->
<svg width="276pt" height="83pt"
 viewBox="0.00 0.00 276.12 82.50" xmlns="http://www.w3.org/2000/svg" xmlns:xlink="http://www.w3.org/1999/xlink">
<g id="graph0" class="graph" transform="scale(1 1) rotate(0) translate(4 78.5)">
<title>Holo2IRTracker.h</title>
<!-- Node1 -->
<g id="Node000001" class="node">
<title>Node1</title>
<g id="a_Node000001"><a xlink:title="Function prototypes for the HoloLens2 IR Tracker class.">
<polygon fill="#999999" stroke="#666666" points="190.88,-74.5 99.12,-74.5 99.12,-55.25 190.88,-55.25 190.88,-74.5"/>
<text text-anchor="middle" x="145" y="-61" font-family="Helvetica,sans-Serif" font-size="10.00">Holo2IRTracker.h</text>
</a>
</g>
</g>
<!-- Node2 -->
<g id="Node000002" class="node">
<title>Node2</title>
<g id="a_Node000002"><a xlink:href="_h_l2_research_mode_controller_8h.html" target="_top" xlink:title="Function prototypes for the HL2ResearchMode class.">
<polygon fill="white" stroke="#666666" points="148,-19.25 0,-19.25 0,0 148,0 148,-19.25"/>
<text text-anchor="middle" x="74" y="-5.75" font-family="Helvetica,sans-Serif" font-size="10.00">HL2ResearchModeController.h</text>
</a>
</g>
</g>
<!-- Node1&#45;&gt;Node2 -->
<g id="edge1_Node000001_Node000002" class="edge">
<title>Node1&#45;&gt;Node2</title>
<g id="a_edge1_Node000001_Node000002"><a xlink:title=" ">
<path fill="none" stroke="#63b8ff" d="M123.75,-47.94C111.36,-38.64 96.18,-27.26 85.87,-19.52"/>
<polygon fill="#63b8ff" stroke="#63b8ff" points="121.64,-50.73 131.74,-53.93 125.84,-45.13 121.64,-50.73"/>
</a>
</g>
</g>
<!-- Node3 -->
<g id="Node000003" class="node">
<title>Node3</title>
<g id="a_Node000003"><a xlink:href="_holo2_i_r_tracker_8cpp.html" target="_top" xlink:title="Implementations for Holo2IRTracker.">
<polygon fill="white" stroke="#666666" points="268.12,-19.25 165.88,-19.25 165.88,0 268.12,0 268.12,-19.25"/>
<text text-anchor="middle" x="217" y="-5.75" font-family="Helvetica,sans-Serif" font-size="10.00">Holo2IRTracker.cpp</text>
</a>
</g>
</g>
<!-- Node1&#45;&gt;Node3 -->
<g id="edge2_Node000001_Node000003" class="edge">
<title>Node1&#45;&gt;Node3</title>
<g id="a_edge2_Node000001_Node000003"><a xlink:title=" ">
<path fill="none" stroke="#63b8ff" d="M166.17,-48.22C178.81,-38.87 194.41,-27.33 204.97,-19.52"/>
<polygon fill="#63b8ff" stroke="#63b8ff" points="164.39,-45.18 158.43,-53.94 168.55,-50.81 164.39,-45.18"/>
</a>
</g>
</g>
</g>
</svg>
