<?xml version="1.0" encoding="UTF-8" standalone="no"?>
<!DOCTYPE svg PUBLIC "-//W3C//DTD SVG 1.1//EN"
 "http://www.w3.org/Graphics/SVG/1.1/DTD/svg11.dtd">
<!-- Generated by graphviz version 9.0.0 (20230911.1827)
 -->
<!-- Title: Holo2IRTracker.h Pages: 1 -->
<svg width="346pt" height="138pt"
 viewBox="0.00 0.00 345.75 137.75" xmlns="http://www.w3.org/2000/svg" xmlns:xlink="http://www.w3.org/1999/xlink">
<g id="graph0" class="graph" transform="scale(1 1) rotate(0) translate(4 133.75)">
<title>Holo2IRTracker.h</title>
<!-- Node1 -->
<g id="Node000001" class="node">
<title>Node1</title>
<g id="a_Node000001"><a xlink:title="Function prototypes for the HoloLens2 IR Tracker class.">
<polygon fill="#999999" stroke="#666666" points="223.62,-129.75 131.88,-129.75 131.88,-110.5 223.62,-110.5 223.62,-129.75"/>
<text text-anchor="middle" x="177.75" y="-116.25" font-family="Helvetica,sans-Serif" font-size="10.00">Holo2IRTracker.h</text>
</a>
</g>
</g>
<!-- Node2 -->
<g id="Node000002" class="node">
<title>Node2</title>
<g id="a_Node000002"><a xlink:title=" ">
<polygon fill="#e0e0e0" stroke="#999999" points="71.5,-19.25 0,-19.25 0,0 71.5,0 71.5,-19.25"/>
<text text-anchor="middle" x="35.75" y="-5.75" font-family="Helvetica,sans-Serif" font-size="10.00">Eigen/Dense</text>
</a>
</g>
</g>
<!-- Node1&#45;&gt;Node2 -->
<g id="edge1_Node000001_Node000002" class="edge">
<title>Node1&#45;&gt;Node2</title>
<g id="a_edge1_Node000001_Node000002"><a xlink:title=" ">
<path fill="none" stroke="#63b8ff" d="M150.25,-110.11C130.37,-102.68 103.62,-90.73 83.75,-74.5 68.17,-61.78 54.84,-42.97 46.2,-29.05"/>
<polygon fill="#63b8ff" stroke="#63b8ff" points="49.45,-27.66 41.33,-20.85 43.43,-31.24 49.45,-27.66"/>
</a>
</g>
</g>
<!-- Node3 -->
<g id="Node000003" class="node">
<title>Node3</title>
<g id="a_Node000003"><a xlink:title=" ">
<polygon fill="#e0e0e0" stroke="#999999" points="133.25,-19.25 90.25,-19.25 90.25,0 133.25,0 133.25,-19.25"/>
<text text-anchor="middle" x="111.75" y="-5.75" font-family="Helvetica,sans-Serif" font-size="10.00">vector</text>
</a>
</g>
</g>
<!-- Node1&#45;&gt;Node3 -->
<g id="edge2_Node000001_Node000003" class="edge">
<title>Node1&#45;&gt;Node3</title>
<g id="a_edge2_Node000001_Node000003"><a xlink:title=" ">
<path fill="none" stroke="#63b8ff" d="M140.96,-110.09C122.48,-103.49 101.72,-92.46 90.75,-74.5 82.02,-60.21 89.67,-41.88 98.08,-28.53"/>
<polygon fill="#63b8ff" stroke="#63b8ff" points="100.7,-30.88 103.54,-20.67 94.95,-26.89 100.7,-30.88"/>
</a>
</g>
</g>
<!-- Node4 -->
<g id="Node000004" class="node">
<title>Node4</title>
<g id="a_Node000004"><a xlink:title=" ">
<polygon fill="#e0e0e0" stroke="#999999" points="186.12,-19.25 151.38,-19.25 151.38,0 186.12,0 186.12,-19.25"/>
<text text-anchor="middle" x="168.75" y="-5.75" font-family="Helvetica,sans-Serif" font-size="10.00">map</text>
</a>
</g>
</g>
<!-- Node1&#45;&gt;Node4 -->
<g id="edge3_Node000001_Node000004" class="edge">
<title>Node1&#45;&gt;Node4</title>
<g id="a_edge3_Node000001_Node000004"><a xlink:title=" ">
<path fill="none" stroke="#63b8ff" d="M183.24,-110.02C190.01,-97.63 200.02,-74.75 194.75,-55.25 192.24,-45.97 187.27,-36.63 182.34,-28.91"/>
<polygon fill="#63b8ff" stroke="#63b8ff" points="185.3,-27.04 176.74,-20.8 179.54,-31.02 185.3,-27.04"/>
</a>
</g>
</g>
<!-- Node5 -->
<g id="Node000005" class="node">
<title>Node5</title>
<g id="a_Node000005"><a xlink:title=" ">
<polygon fill="#e0e0e0" stroke="#999999" points="297.38,-19.25 204.12,-19.25 204.12,0 297.38,0 297.38,-19.25"/>
<text text-anchor="middle" x="250.75" y="-5.75" font-family="Helvetica,sans-Serif" font-size="10.00">opencv2/core.hpp</text>
</a>
</g>
</g>
<!-- Node1&#45;&gt;Node5 -->
<g id="edge4_Node000001_Node000005" class="edge">
<title>Node1&#45;&gt;Node5</title>
<g id="a_edge4_Node000001_Node000005"><a xlink:title=" ">
<path fill="none" stroke="#63b8ff" d="M183.99,-110.28C190.3,-101.31 200.3,-87 208.75,-74.5 219.09,-59.21 230.59,-41.68 238.94,-28.86"/>
<polygon fill="#63b8ff" stroke="#63b8ff" points="241.78,-30.91 244.29,-20.62 235.91,-27.1 241.78,-30.91"/>
</a>
</g>
</g>
<!-- Node6 -->
<g id="Node000006" class="node">
<title>Node6</title>
<g id="a_Node000006"><a xlink:title=" ">
<polygon fill="#e0e0e0" stroke="#999999" points="337.75,-74.5 279.75,-74.5 279.75,-55.25 337.75,-55.25 337.75,-74.5"/>
<text text-anchor="middle" x="308.75" y="-61" font-family="Helvetica,sans-Serif" font-size="10.00">functional</text>
</a>
</g>
</g>
<!-- Node1&#45;&gt;Node6 -->
<g id="edge5_Node000001_Node000006" class="edge">
<title>Node1&#45;&gt;Node6</title>
<g id="a_edge5_Node000001_Node000006"><a xlink:title=" ">
<path fill="none" stroke="#63b8ff" d="M199.97,-110.09C220.77,-101.64 252.1,-88.9 275.8,-79.27"/>
<polygon fill="#63b8ff" stroke="#63b8ff" points="277.07,-82.53 285.02,-75.52 274.43,-76.05 277.07,-82.53"/>
</a>
</g>
</g>
<!-- Node7 -->
<g id="Node000007" class="node">
<title>Node7</title>
<g id="a_Node000007"><a xlink:href="_i_r_tracker_utils_8h.html" target="_top" xlink:title="Function prototypes for general utilities used by the Holo2IRTracker class. Implementations split in ...">
<polygon fill="white" stroke="#666666" points="186,-74.5 99.5,-74.5 99.5,-55.25 186,-55.25 186,-74.5"/>
<text text-anchor="middle" x="142.75" y="-61" font-family="Helvetica,sans-Serif" font-size="10.00">IRTrackerUtils.h</text>
</a>
</g>
</g>
<!-- Node1&#45;&gt;Node7 -->
<g id="edge6_Node000001_Node000007" class="edge">
<title>Node1&#45;&gt;Node7</title>
<g id="a_edge6_Node000001_Node000007"><a xlink:title=" ">
<path fill="none" stroke="#63b8ff" d="M171.97,-110.33C167.34,-103.28 160.68,-93.15 154.88,-84.33"/>
<polygon fill="#63b8ff" stroke="#63b8ff" points="157.9,-82.56 149.49,-76.12 152.05,-86.4 157.9,-82.56"/>
</a>
</g>
</g>
<!-- Node7&#45;&gt;Node2 -->
<g id="edge7_Node000007_Node000002" class="edge">
<title>Node7&#45;&gt;Node2</title>
<g id="a_edge7_Node000007_Node000002"><a xlink:title=" ">
<path fill="none" stroke="#63b8ff" d="M124.6,-54.84C108.07,-46.62 83.41,-34.34 64.25,-24.81"/>
<polygon fill="#63b8ff" stroke="#63b8ff" points="65.86,-21.7 55.35,-20.38 62.74,-27.97 65.86,-21.7"/>
</a>
</g>
</g>
<!-- Node7&#45;&gt;Node3 -->
<g id="edge9_Node000007_Node000003" class="edge">
<title>Node7&#45;&gt;Node3</title>
<g id="a_edge9_Node000007_Node000003"><a xlink:title=" ">
<path fill="none" stroke="#63b8ff" d="M137.63,-55.08C133.57,-48.11 127.76,-38.12 122.66,-29.37"/>
<polygon fill="#63b8ff" stroke="#63b8ff" points="125.8,-27.8 117.74,-20.92 119.75,-31.32 125.8,-27.8"/>
</a>
</g>
</g>
<!-- Node7&#45;&gt;Node4 -->
<g id="edge10_Node000007_Node000004" class="edge">
<title>Node7&#45;&gt;Node4</title>
<g id="a_edge10_Node000007_Node000004"><a xlink:title=" ">
<path fill="none" stroke="#63b8ff" d="M147.04,-55.08C150.37,-48.26 155.11,-38.56 159.31,-29.95"/>
<polygon fill="#63b8ff" stroke="#63b8ff" points="162.46,-31.49 163.7,-20.97 156.17,-28.42 162.46,-31.49"/>
</a>
</g>
</g>
<!-- Node7&#45;&gt;Node5 -->
<g id="edge8_Node000007_Node000005" class="edge">
<title>Node7&#45;&gt;Node5</title>
<g id="a_edge8_Node000007_Node000005"><a xlink:title=" ">
<path fill="none" stroke="#63b8ff" d="M161.07,-54.84C177.83,-46.58 202.88,-34.23 222.25,-24.68"/>
<polygon fill="#63b8ff" stroke="#63b8ff" points="223.56,-27.93 230.98,-20.37 220.47,-21.65 223.56,-27.93"/>
</a>
</g>
</g>
</g>
</svg>
