<?xml version="1.0" encoding="UTF-8" standalone="no"?>
<!DOCTYPE svg PUBLIC "-//W3C//DTD SVG 1.1//EN"
 "http://www.w3.org/Graphics/SVG/1.1/DTD/svg11.dtd">
<!-- Generated by graphviz version 9.0.0 (20230911.1827)
 -->
<!-- Title: IRTrackerUtils.h Pages: 1 -->
<svg width="427pt" height="138pt"
 viewBox="0.00 0.00 427.25 137.75" xmlns="http://www.w3.org/2000/svg" xmlns:xlink="http://www.w3.org/1999/xlink">

<svg id="main" version="1.1" xmlns="http://www.w3.org/2000/svg" xmlns:xlink="http://www.w3.org/1999/xlink" xml:space="preserve" onload="init(evt)">
<style type="text/css"><![CDATA[
.node, .edge {opacity: 0.7;}
.node.selected, .edge.selected {opacity: 1;}
.edge:hover path { stroke: red; }
.edge:hover polygon { stroke: red; fill: red; }
]]></style>
<script type="application/ecmascript" xlink:href="svg.min.js"/>
<svg id="graph" class="graph">
<g id="graph0" class="graph" transform="scale(1 1) rotate(0) translate(4 133.75)">
<title>IRTrackerUtils.h</title>
<!-- Node1 -->
<g id="Node000001" class="node">
<title>Node1</title>
<g id="a_Node000001"><a xlink:title="Function prototypes for general utilities used by the Holo2IRTracker class. Implementations split in ...">
<polygon fill="#999999" stroke="#666666" points="308.25,-129.75 221.75,-129.75 221.75,-110.5 308.25,-110.5 308.25,-129.75"/>
<text text-anchor="middle" x="265" y="-116.25" font-family="Helvetica,sans-Serif" font-size="10.00">IRTrackerUtils.h</text>
</a>
</g>
</g>
<!-- Node2 -->
<g id="Node000002" class="node">
<title>Node2</title>
<g id="a_Node000002"><a xlink:href="_holo2_i_r_tracker_8h.html" target="_top" xlink:title="Function prototypes for the HoloLens2 IR Tracker class.">
<polygon fill="white" stroke="#666666" points="190.88,-74.5 99.12,-74.5 99.12,-55.25 190.88,-55.25 190.88,-74.5"/>
<text text-anchor="middle" x="145" y="-61" font-family="Helvetica,sans-Serif" font-size="10.00">Holo2IRTracker.h</text>
</a>
</g>
</g>
<!-- Node1&#45;&gt;Node2 -->
<g id="edge1_Node000001_Node000002" class="edge">
<title>Node1&#45;&gt;Node2</title>
<g id="a_edge1_Node000001_Node000002"><a xlink:title=" ">
<path fill="none" stroke="#63b8ff" d="M234.34,-105.52C212.73,-95.93 184.37,-83.34 165.46,-74.95"/>
<polygon fill="#63b8ff" stroke="#63b8ff" points="232.7,-108.62 243.26,-109.48 235.54,-102.22 232.7,-108.62"/>
</a>
</g>
</g>
<!-- Node5 -->
<g id="Node000005" class="node">
<title>Node5</title>
<g id="a_Node000005"><a xlink:href="_i_r_image_proc_utils_8cpp.html" target="_top" xlink:title="Utility image processing functions.">
<polygon fill="white" stroke="#666666" points="320.62,-74.5 209.38,-74.5 209.38,-55.25 320.62,-55.25 320.62,-74.5"/>
<text text-anchor="middle" x="265" y="-61" font-family="Helvetica,sans-Serif" font-size="10.00">IRImageProcUtils.cpp</text>
</a>
</g>
</g>
<!-- Node1&#45;&gt;Node5 -->
<g id="edge4_Node000001_Node000005" class="edge">
<title>Node1&#45;&gt;Node5</title>
<g id="a_edge4_Node000001_Node000005"><a xlink:title=" ">
<path fill="none" stroke="#63b8ff" d="M265,-98.88C265,-90.59 265,-81.42 265,-74.86"/>
<polygon fill="#63b8ff" stroke="#63b8ff" points="261.5,-98.82 265,-108.82 268.5,-98.82 261.5,-98.82"/>
</a>
</g>
</g>
<!-- Node6 -->
<g id="Node000006" class="node">
<title>Node6</title>
<g id="a_Node000006"><a xlink:href="_j_s_o_n_utils_8cpp.html" target="_top" xlink:title="Utils for handling JSON config files for the DINO&#45;DLL app.">
<polygon fill="white" stroke="#666666" points="419.25,-74.5 338.75,-74.5 338.75,-55.25 419.25,-55.25 419.25,-74.5"/>
<text text-anchor="middle" x="379" y="-61" font-family="Helvetica,sans-Serif" font-size="10.00">JSONUtils.cpp</text>
</a>
</g>
</g>
<!-- Node1&#45;&gt;Node6 -->
<g id="edge5_Node000001_Node000006" class="edge">
<title>Node1&#45;&gt;Node6</title>
<g id="a_edge5_Node000001_Node000006"><a xlink:title=" ">
<path fill="none" stroke="#63b8ff" d="M294.69,-105.26C315.15,-95.7 341.77,-83.27 359.57,-74.95"/>
<polygon fill="#63b8ff" stroke="#63b8ff" points="293.29,-102.05 285.71,-109.45 296.25,-108.39 293.29,-102.05"/>
</a>
</g>
</g>
<!-- Node3 -->
<g id="Node000003" class="node">
<title>Node3</title>
<g id="a_Node000003"><a xlink:href="_h_l2_research_mode_controller_8h.html" target="_top" xlink:title="Function prototypes for the HL2ResearchMode class.">
<polygon fill="white" stroke="#666666" points="148,-19.25 0,-19.25 0,0 148,0 148,-19.25"/>
<text text-anchor="middle" x="74" y="-5.75" font-family="Helvetica,sans-Serif" font-size="10.00">HL2ResearchModeController.h</text>
</a>
</g>
</g>
<!-- Node2&#45;&gt;Node3 -->
<g id="edge2_Node000002_Node000003" class="edge">
<title>Node2&#45;&gt;Node3</title>
<g id="a_edge2_Node000002_Node000003"><a xlink:title=" ">
<path fill="none" stroke="#63b8ff" d="M123.75,-47.94C111.36,-38.64 96.18,-27.26 85.87,-19.52"/>
<polygon fill="#63b8ff" stroke="#63b8ff" points="121.64,-50.73 131.74,-53.93 125.84,-45.13 121.64,-50.73"/>
</a>
</g>
</g>
<!-- Node4 -->
<g id="Node000004" class="node">
<title>Node4</title>
<g id="a_Node000004"><a xlink:href="_holo2_i_r_tracker_8cpp.html" target="_top" xlink:title="Implementations for Holo2IRTracker.">
<polygon fill="white" stroke="#666666" points="268.12,-19.25 165.88,-19.25 165.88,0 268.12,0 268.12,-19.25"/>
<text text-anchor="middle" x="217" y="-5.75" font-family="Helvetica,sans-Serif" font-size="10.00">Holo2IRTracker.cpp</text>
</a>
</g>
</g>
<!-- Node2&#45;&gt;Node4 -->
<g id="edge3_Node000002_Node000004" class="edge">
<title>Node2&#45;&gt;Node4</title>
<g id="a_edge3_Node000002_Node000004"><a xlink:title=" ">
<path fill="none" stroke="#63b8ff" d="M166.17,-48.22C178.81,-38.87 194.41,-27.33 204.97,-19.52"/>
<polygon fill="#63b8ff" stroke="#63b8ff" points="164.39,-45.18 158.43,-53.94 168.55,-50.81 164.39,-45.18"/>
</a>
</g>
</g>
</g>
</svg>
</svg>

<style type='text/css'>
<![CDATA[
[data-mouse-over-selected='false'] { opacity: 0.7; }
[data-mouse-over-selected='true']  { opacity: 1.0; }
]]>
</style>
<script type="application/ecmascript"><![CDATA[
document.addEventListener('DOMContentLoaded', (event) => {
  highlightEdges();
  highlightAdjacentNodes();
});
]]></script>
</svg>
