<?xml version="1.0" encoding="UTF-8" standalone="no"?>
<!DOCTYPE svg PUBLIC "-//W3C//DTD SVG 1.1//EN"
 "http://www.w3.org/Graphics/SVG/1.1/DTD/svg11.dtd">
<!-- Generated by graphviz version 9.0.0 (20230911.1827)
 -->
<!-- Title: IRImageProcUtils.cpp Pages: 1 -->
<svg width="463pt" height="138pt"
 viewBox="0.00 0.00 463.12 137.75" xmlns="http://www.w3.org/2000/svg" xmlns:xlink="http://www.w3.org/1999/xlink">
<g id="graph0" class="graph" transform="scale(1 1) rotate(0) translate(4 133.75)">
<title>IRImageProcUtils.cpp</title>
<!-- Node1 -->
<g id="Node000001" class="node">
<title>Node1</title>
<g id="a_Node000001"><a xlink:title="Utility image processing functions.">
<polygon fill="#999999" stroke="#666666" points="246.25,-129.75 135,-129.75 135,-110.5 246.25,-110.5 246.25,-129.75"/>
<text text-anchor="middle" x="190.62" y="-116.25" font-family="Helvetica,sans-Serif" font-size="10.00">IRImageProcUtils.cpp</text>
</a>
</g>
</g>
<!-- Node2 -->
<g id="Node000002" class="node">
<title>Node2</title>
<g id="a_Node000002"><a xlink:title=" ">
<polygon fill="#e0e0e0" stroke="#999999" points="47.62,-74.5 7.62,-74.5 7.62,-55.25 47.62,-55.25 47.62,-74.5"/>
<text text-anchor="middle" x="27.62" y="-61" font-family="Helvetica,sans-Serif" font-size="10.00">pch.h</text>
</a>
</g>
</g>
<!-- Node1&#45;&gt;Node2 -->
<g id="edge1_Node000001_Node000002" class="edge">
<title>Node1&#45;&gt;Node2</title>
<g id="a_edge1_Node000001_Node000002"><a xlink:title=" ">
<path fill="none" stroke="#63b8ff" d="M162.97,-110.09C133.98,-100.62 88.53,-85.77 58.41,-75.93"/>
<polygon fill="#63b8ff" stroke="#63b8ff" points="59.71,-72.68 49.12,-72.9 57.54,-79.33 59.71,-72.68"/>
</a>
</g>
</g>
<!-- Node3 -->
<g id="Node000003" class="node">
<title>Node3</title>
<g id="a_Node000003"><a xlink:href="_i_r_tracker_utils_8h.html" target="_top" xlink:title="Function prototypes for general utilities used by the Holo2IRTracker class. Implementations split in ...">
<polygon fill="white" stroke="#666666" points="189.88,-74.5 103.38,-74.5 103.38,-55.25 189.88,-55.25 189.88,-74.5"/>
<text text-anchor="middle" x="146.62" y="-61" font-family="Helvetica,sans-Serif" font-size="10.00">IRTrackerUtils.h</text>
</a>
</g>
</g>
<!-- Node1&#45;&gt;Node3 -->
<g id="edge2_Node000001_Node000003" class="edge">
<title>Node1&#45;&gt;Node3</title>
<g id="a_edge2_Node000001_Node000003"><a xlink:title=" ">
<path fill="none" stroke="#63b8ff" d="M183.36,-110.33C177.34,-103.05 168.61,-92.48 161.17,-83.48"/>
<polygon fill="#63b8ff" stroke="#63b8ff" points="164.08,-81.51 155.01,-76.03 158.68,-85.96 164.08,-81.51"/>
</a>
</g>
</g>
<!-- Node5 -->
<g id="Node000005" class="node">
<title>Node5</title>
<g id="a_Node000005"><a xlink:title=" ">
<polygon fill="#e0e0e0" stroke="#999999" points="93.25,-19.25 0,-19.25 0,0 93.25,0 93.25,-19.25"/>
<text text-anchor="middle" x="46.62" y="-5.75" font-family="Helvetica,sans-Serif" font-size="10.00">opencv2/core.hpp</text>
</a>
</g>
</g>
<!-- Node1&#45;&gt;Node5 -->
<g id="edge8_Node000001_Node000005" class="edge">
<title>Node1&#45;&gt;Node5</title>
<g id="a_edge8_Node000001_Node000005"><a xlink:title=" ">
<path fill="none" stroke="#63b8ff" d="M162.1,-110.07C141.84,-102.69 114.76,-90.81 94.62,-74.5 78.99,-61.84 65.67,-43.02 57.05,-29.09"/>
<polygon fill="#63b8ff" stroke="#63b8ff" points="60.29,-27.7 52.19,-20.87 54.27,-31.26 60.29,-27.7"/>
</a>
</g>
</g>
<!-- Node8 -->
<g id="Node000008" class="node">
<title>Node8</title>
<g id="a_Node000008"><a xlink:title=" ">
<polygon fill="#e0e0e0" stroke="#999999" points="261.38,-74.5 207.88,-74.5 207.88,-55.25 261.38,-55.25 261.38,-74.5"/>
<text text-anchor="middle" x="234.62" y="-61" font-family="Helvetica,sans-Serif" font-size="10.00">iostream</text>
</a>
</g>
</g>
<!-- Node1&#45;&gt;Node8 -->
<g id="edge7_Node000001_Node000008" class="edge">
<title>Node1&#45;&gt;Node8</title>
<g id="a_edge7_Node000001_Node000008"><a xlink:title=" ">
<path fill="none" stroke="#63b8ff" d="M197.89,-110.33C203.91,-103.05 212.64,-92.48 220.08,-83.48"/>
<polygon fill="#63b8ff" stroke="#63b8ff" points="222.57,-85.96 226.24,-76.03 217.17,-81.51 222.57,-85.96"/>
</a>
</g>
</g>
<!-- Node9 -->
<g id="Node000009" class="node">
<title>Node9</title>
<g id="a_Node000009"><a xlink:title=" ">
<polygon fill="#e0e0e0" stroke="#999999" points="388.12,-74.5 279.12,-74.5 279.12,-55.25 388.12,-55.25 388.12,-74.5"/>
<text text-anchor="middle" x="333.62" y="-61" font-family="Helvetica,sans-Serif" font-size="10.00">opencv2/imgproc.hpp</text>
</a>
</g>
</g>
<!-- Node1&#45;&gt;Node9 -->
<g id="edge9_Node000001_Node000009" class="edge">
<title>Node1&#45;&gt;Node9</title>
<g id="a_edge9_Node000001_Node000009"><a xlink:title=" ">
<path fill="none" stroke="#63b8ff" d="M214.88,-110.09C237.89,-101.52 272.72,-88.56 298.71,-78.88"/>
<polygon fill="#63b8ff" stroke="#63b8ff" points="299.68,-82.25 307.83,-75.48 297.24,-75.69 299.68,-82.25"/>
</a>
</g>
</g>
<!-- Node10 -->
<g id="Node000010" class="node">
<title>Node10</title>
<g id="a_Node000010"><a xlink:title=" ">
<polygon fill="#e0e0e0" stroke="#999999" points="455.12,-74.5 406.12,-74.5 406.12,-55.25 455.12,-55.25 455.12,-74.5"/>
<text text-anchor="middle" x="430.62" y="-61" font-family="Helvetica,sans-Serif" font-size="10.00">Shiny.h</text>
</a>
</g>
</g>
<!-- Node1&#45;&gt;Node10 -->
<g id="edge10_Node000001_Node000010" class="edge">
<title>Node1&#45;&gt;Node10</title>
<g id="a_edge10_Node000001_Node000010"><a xlink:title=" ">
<path fill="none" stroke="#63b8ff" d="M235.57,-110.02C275.21,-101.86 334.79,-89.28 394.95,-75.07"/>
<polygon fill="#63b8ff" stroke="#63b8ff" points="395.4,-78.56 404.32,-72.84 393.78,-71.75 395.4,-78.56"/>
</a>
</g>
</g>
<!-- Node4 -->
<g id="Node000004" class="node">
<title>Node4</title>
<g id="a_Node000004"><a xlink:title=" ">
<polygon fill="#e0e0e0" stroke="#999999" points="182.38,-19.25 110.88,-19.25 110.88,0 182.38,0 182.38,-19.25"/>
<text text-anchor="middle" x="146.62" y="-5.75" font-family="Helvetica,sans-Serif" font-size="10.00">Eigen/Dense</text>
</a>
</g>
</g>
<!-- Node3&#45;&gt;Node4 -->
<g id="edge3_Node000003_Node000004" class="edge">
<title>Node3&#45;&gt;Node4</title>
<g id="a_edge3_Node000003_Node000004"><a xlink:title=" ">
<path fill="none" stroke="#63b8ff" d="M146.62,-55.08C146.62,-48.57 146.62,-39.42 146.62,-31.12"/>
<polygon fill="#63b8ff" stroke="#63b8ff" points="150.13,-31.12 146.63,-21.12 143.13,-31.12 150.13,-31.12"/>
</a>
</g>
</g>
<!-- Node3&#45;&gt;Node5 -->
<g id="edge4_Node000003_Node000005" class="edge">
<title>Node3&#45;&gt;Node5</title>
<g id="a_edge4_Node000003_Node000005"><a xlink:title=" ">
<path fill="none" stroke="#63b8ff" d="M129.66,-54.84C114.36,-46.69 91.59,-34.57 73.76,-25.08"/>
<polygon fill="#63b8ff" stroke="#63b8ff" points="75.48,-22.02 65.01,-20.41 72.19,-28.2 75.48,-22.02"/>
</a>
</g>
</g>
<!-- Node6 -->
<g id="Node000006" class="node">
<title>Node6</title>
<g id="a_Node000006"><a xlink:title=" ">
<polygon fill="#e0e0e0" stroke="#999999" points="243.12,-19.25 200.12,-19.25 200.12,0 243.12,0 243.12,-19.25"/>
<text text-anchor="middle" x="221.62" y="-5.75" font-family="Helvetica,sans-Serif" font-size="10.00">vector</text>
</a>
</g>
</g>
<!-- Node3&#45;&gt;Node6 -->
<g id="edge5_Node000003_Node000006" class="edge">
<title>Node3&#45;&gt;Node6</title>
<g id="a_edge5_Node000003_Node000006"><a xlink:title=" ">
<path fill="none" stroke="#63b8ff" d="M159.35,-54.84C170.34,-47.04 186.47,-35.59 199.56,-26.29"/>
<polygon fill="#63b8ff" stroke="#63b8ff" points="201.48,-29.22 207.61,-20.58 197.43,-23.51 201.48,-29.22"/>
</a>
</g>
</g>
<!-- Node7 -->
<g id="Node000007" class="node">
<title>Node7</title>
<g id="a_Node000007"><a xlink:title=" ">
<polygon fill="#e0e0e0" stroke="#999999" points="296,-19.25 261.25,-19.25 261.25,0 296,0 296,-19.25"/>
<text text-anchor="middle" x="278.62" y="-5.75" font-family="Helvetica,sans-Serif" font-size="10.00">map</text>
</a>
</g>
</g>
<!-- Node3&#45;&gt;Node7 -->
<g id="edge6_Node000003_Node000007" class="edge">
<title>Node3&#45;&gt;Node7</title>
<g id="a_edge6_Node000003_Node000007"><a xlink:title=" ">
<path fill="none" stroke="#63b8ff" d="M169.02,-54.84C191.47,-45.78 226.11,-31.81 250.42,-22"/>
<polygon fill="#63b8ff" stroke="#63b8ff" points="251.42,-25.37 259.38,-18.39 248.8,-18.88 251.42,-25.37"/>
</a>
</g>
</g>
</g>
</svg>
