<?xml version="1.0" encoding="UTF-8" standalone="no"?>
<!DOCTYPE svg PUBLIC "-//W3C//DTD SVG 1.1//EN"
 "http://www.w3.org/Graphics/SVG/1.1/DTD/svg11.dtd">
<!-- Generated by graphviz version 9.0.0 (20230911.1827)
 -->
<!-- Title: JSONUtils.cpp Pages: 1 -->
<svg width="378pt" height="138pt"
 viewBox="0.00 0.00 378.38 137.75" xmlns="http://www.w3.org/2000/svg" xmlns:xlink="http://www.w3.org/1999/xlink">

<svg id="main" version="1.1" xmlns="http://www.w3.org/2000/svg" xmlns:xlink="http://www.w3.org/1999/xlink" xml:space="preserve" onload="init(evt)">
<style type="text/css"><![CDATA[
.node, .edge {opacity: 0.7;}
.node.selected, .edge.selected {opacity: 1;}
.edge:hover path { stroke: red; }
.edge:hover polygon { stroke: red; fill: red; }
]]></style>
<script type="application/ecmascript" xlink:href="svg.min.js"/>
<svg id="graph" class="graph">
<g id="graph0" class="graph" transform="scale(1 1) rotate(0) translate(4 133.75)">
<title>JSONUtils.cpp</title>
<!-- Node1 -->
<g id="Node000001" class="node">
<title>Node1</title>
<g id="a_Node000001"><a xlink:title="Utils for handling JSON config files for the DINO&#45;DLL app.">
<polygon fill="#999999" stroke="#666666" points="229.25,-129.75 148.75,-129.75 148.75,-110.5 229.25,-110.5 229.25,-129.75"/>
<text text-anchor="middle" x="189" y="-116.25" font-family="Helvetica,sans-Serif" font-size="10.00">JSONUtils.cpp</text>
</a>
</g>
</g>
<!-- Node2 -->
<g id="Node000002" class="node">
<title>Node2</title>
<g id="a_Node000002"><a xlink:title=" ">
<polygon fill="#e0e0e0" stroke="#999999" points="40,-74.5 0,-74.5 0,-55.25 40,-55.25 40,-74.5"/>
<text text-anchor="middle" x="20" y="-61" font-family="Helvetica,sans-Serif" font-size="10.00">pch.h</text>
</a>
</g>
</g>
<!-- Node1&#45;&gt;Node2 -->
<g id="edge1_Node000001_Node000002" class="edge">
<title>Node1&#45;&gt;Node2</title>
<g id="a_edge1_Node000001_Node000002"><a xlink:title=" ">
<path fill="none" stroke="#63b8ff" d="M160.33,-110.09C129.97,-100.53 82.2,-85.47 50.99,-75.64"/>
<polygon fill="#63b8ff" stroke="#63b8ff" points="52.33,-72.39 41.74,-72.73 50.23,-79.07 52.33,-72.39"/>
</a>
</g>
</g>
<!-- Node3 -->
<g id="Node000003" class="node">
<title>Node3</title>
<g id="a_Node000003"><a xlink:title=" ">
<polygon fill="#e0e0e0" stroke="#999999" points="191.88,-74.5 58.12,-74.5 58.12,-55.25 191.88,-55.25 191.88,-74.5"/>
<text text-anchor="middle" x="125" y="-61" font-family="Helvetica,sans-Serif" font-size="10.00">winrt/Windows.Data.Json.h</text>
</a>
</g>
</g>
<!-- Node1&#45;&gt;Node3 -->
<g id="edge2_Node000001_Node000003" class="edge">
<title>Node1&#45;&gt;Node3</title>
<g id="a_edge2_Node000001_Node000003"><a xlink:title=" ">
<path fill="none" stroke="#63b8ff" d="M178.14,-110.09C168.89,-102.4 155.38,-91.15 144.29,-81.93"/>
<polygon fill="#63b8ff" stroke="#63b8ff" points="146.79,-79.45 136.86,-75.74 142.31,-84.83 146.79,-79.45"/>
</a>
</g>
</g>
<!-- Node4 -->
<g id="Node000004" class="node">
<title>Node4</title>
<g id="a_Node000004"><a xlink:href="_i_r_tracker_utils_8h.html" target="_top" xlink:title="Function prototypes for general utilities used by the Holo2IRTracker class. Implementations split in ...">
<polygon fill="white" stroke="#666666" points="296.25,-74.5 209.75,-74.5 209.75,-55.25 296.25,-55.25 296.25,-74.5"/>
<text text-anchor="middle" x="253" y="-61" font-family="Helvetica,sans-Serif" font-size="10.00">IRTrackerUtils.h</text>
</a>
</g>
</g>
<!-- Node1&#45;&gt;Node4 -->
<g id="edge3_Node000001_Node000004" class="edge">
<title>Node1&#45;&gt;Node4</title>
<g id="a_edge3_Node000001_Node000004"><a xlink:title=" ">
<path fill="none" stroke="#63b8ff" d="M199.86,-110.09C209.11,-102.4 222.62,-91.15 233.71,-81.93"/>
<polygon fill="#63b8ff" stroke="#63b8ff" points="235.69,-84.83 241.14,-75.74 231.21,-79.45 235.69,-84.83"/>
</a>
</g>
</g>
<!-- Node9 -->
<g id="Node000009" class="node">
<title>Node9</title>
<g id="a_Node000009"><a xlink:title=" ">
<polygon fill="#e0e0e0" stroke="#999999" points="365.62,-74.5 314.38,-74.5 314.38,-55.25 365.62,-55.25 365.62,-74.5"/>
<text text-anchor="middle" x="340" y="-61" font-family="Helvetica,sans-Serif" font-size="10.00">sstream</text>
</a>
</g>
</g>
<!-- Node1&#45;&gt;Node9 -->
<g id="edge8_Node000001_Node000009" class="edge">
<title>Node1&#45;&gt;Node9</title>
<g id="a_edge8_Node000001_Node000009"><a xlink:title=" ">
<path fill="none" stroke="#63b8ff" d="M214.62,-110.09C239.02,-101.49 276.01,-88.44 303.5,-78.75"/>
<polygon fill="#63b8ff" stroke="#63b8ff" points="304.57,-82.08 312.83,-75.46 302.24,-75.48 304.57,-82.08"/>
</a>
</g>
</g>
<!-- Node5 -->
<g id="Node000005" class="node">
<title>Node5</title>
<g id="a_Node000005"><a xlink:title=" ">
<polygon fill="#e0e0e0" stroke="#999999" points="145.75,-19.25 74.25,-19.25 74.25,0 145.75,0 145.75,-19.25"/>
<text text-anchor="middle" x="110" y="-5.75" font-family="Helvetica,sans-Serif" font-size="10.00">Eigen/Dense</text>
</a>
</g>
</g>
<!-- Node4&#45;&gt;Node5 -->
<g id="edge4_Node000004_Node000005" class="edge">
<title>Node4&#45;&gt;Node5</title>
<g id="a_edge4_Node000004_Node000005"><a xlink:title=" ">
<path fill="none" stroke="#63b8ff" d="M228.74,-54.84C205.73,-46.27 170.91,-33.31 144.92,-23.63"/>
<polygon fill="#63b8ff" stroke="#63b8ff" points="146.39,-20.44 135.8,-20.23 143.95,-27 146.39,-20.44"/>
</a>
</g>
</g>
<!-- Node6 -->
<g id="Node000006" class="node">
<title>Node6</title>
<g id="a_Node000006"><a xlink:title=" ">
<polygon fill="#e0e0e0" stroke="#999999" points="256.62,-19.25 163.38,-19.25 163.38,0 256.62,0 256.62,-19.25"/>
<text text-anchor="middle" x="210" y="-5.75" font-family="Helvetica,sans-Serif" font-size="10.00">opencv2/core.hpp</text>
</a>
</g>
</g>
<!-- Node4&#45;&gt;Node6 -->
<g id="edge5_Node000004_Node000006" class="edge">
<title>Node4&#45;&gt;Node6</title>
<g id="a_edge5_Node000004_Node000006"><a xlink:title=" ">
<path fill="none" stroke="#63b8ff" d="M245.9,-55.08C240.08,-47.88 231.67,-37.46 224.44,-28.51"/>
<polygon fill="#63b8ff" stroke="#63b8ff" points="227.21,-26.37 218.21,-20.79 221.77,-30.77 227.21,-26.37"/>
</a>
</g>
</g>
<!-- Node7 -->
<g id="Node000007" class="node">
<title>Node7</title>
<g id="a_Node000007"><a xlink:title=" ">
<polygon fill="#e0e0e0" stroke="#999999" points="317.5,-19.25 274.5,-19.25 274.5,0 317.5,0 317.5,-19.25"/>
<text text-anchor="middle" x="296" y="-5.75" font-family="Helvetica,sans-Serif" font-size="10.00">vector</text>
</a>
</g>
</g>
<!-- Node4&#45;&gt;Node7 -->
<g id="edge6_Node000004_Node000007" class="edge">
<title>Node4&#45;&gt;Node7</title>
<g id="a_edge6_Node000004_Node000007"><a xlink:title=" ">
<path fill="none" stroke="#63b8ff" d="M260.1,-55.08C265.92,-47.88 274.33,-37.46 281.56,-28.51"/>
<polygon fill="#63b8ff" stroke="#63b8ff" points="284.23,-30.77 287.79,-20.79 278.79,-26.37 284.23,-30.77"/>
</a>
</g>
</g>
<!-- Node8 -->
<g id="Node000008" class="node">
<title>Node8</title>
<g id="a_Node000008"><a xlink:title=" ">
<polygon fill="#e0e0e0" stroke="#999999" points="370.38,-19.25 335.62,-19.25 335.62,0 370.38,0 370.38,-19.25"/>
<text text-anchor="middle" x="353" y="-5.75" font-family="Helvetica,sans-Serif" font-size="10.00">map</text>
</a>
</g>
</g>
<!-- Node4&#45;&gt;Node8 -->
<g id="edge7_Node000004_Node000008" class="edge">
<title>Node4&#45;&gt;Node8</title>
<g id="a_edge7_Node000004_Node000008"><a xlink:title=" ">
<path fill="none" stroke="#63b8ff" d="M269.96,-54.84C285.26,-46.69 308.03,-34.57 325.86,-25.08"/>
<polygon fill="#63b8ff" stroke="#63b8ff" points="327.44,-28.2 334.62,-20.41 324.15,-22.02 327.44,-28.2"/>
</a>
</g>
</g>
</g>
</svg>
</svg>

<style type='text/css'>
<![CDATA[
[data-mouse-over-selected='false'] { opacity: 0.7; }
[data-mouse-over-selected='true']  { opacity: 1.0; }
]]>
</style>
<script type="application/ecmascript"><![CDATA[
document.addEventListener('DOMContentLoaded', (event) => {
  highlightEdges();
  highlightAdjacentNodes();
});
]]></script>
</svg>
