<?xml version="1.0" encoding="UTF-8" standalone="no"?>
<!DOCTYPE svg PUBLIC "-//W3C//DTD SVG 1.1//EN"
 "http://www.w3.org/Graphics/SVG/1.1/DTD/svg11.dtd">
<!-- Generated by graphviz version 9.0.0 (20230911.1827)
 -->
<!-- Title: Graph Legend Pages: 1 -->
<svg width="504pt" height="160pt"
 viewBox="0.00 0.00 504.00 160.25" xmlns="http://www.w3.org/2000/svg" xmlns:xlink="http://www.w3.org/1999/xlink">
<g id="graph0" class="graph" transform="scale(1 1) rotate(0) translate(4 156.25)">
<title>Graph Legend</title>
<!-- Node9 -->
<g id="Node000009" class="node">
<title>Node9</title>
<g id="a_Node000009"><a xlink:title=" ">
<polygon fill="#999999" stroke="#666666" points="289.5,-19.25 236,-19.25 236,0 289.5,0 289.5,-19.25"/>
<text text-anchor="middle" x="262.75" y="-5.75" font-family="Helvetica,sans-Serif" font-size="10.00">Inherited</text>
</a>
</g>
</g>
<!-- Node10 -->
<g id="Node000010" class="node">
<title>Node10</title>
<g id="a_Node000010"><a xlink:title=" ">
<polygon fill="white" stroke="#666666" points="65.5,-85.75 0,-85.75 0,-66.5 65.5,-66.5 65.5,-85.75"/>
<text text-anchor="middle" x="32.75" y="-72.25" font-family="Helvetica,sans-Serif" font-size="10.00">PublicBase</text>
</a>
</g>
</g>
<!-- Node10&#45;&gt;Node9 -->
<g id="edge1" class="edge">
<title>Node10&#45;&gt;Node9</title>
<g id="a_edge1"><a xlink:title=" ">
<path fill="none" stroke="#63b8ff" d="M76.26,-62.92C123.23,-49.75 196.58,-29.18 235.82,-18.18"/>
<polygon fill="#63b8ff" stroke="#63b8ff" points="75.36,-59.54 66.67,-65.61 77.25,-66.28 75.36,-59.54"/>
</a>
</g>
</g>
<!-- Node11 -->
<g id="Node000011" class="node">
<title>Node11</title>
<g id="a_Node000011"><a xlink:title=" ">
<polygon fill="#fff0f0" stroke="red" points="62.5,-152.25 3,-152.25 3,-133 62.5,-133 62.5,-152.25"/>
<text text-anchor="middle" x="32.75" y="-138.75" font-family="Helvetica,sans-Serif" font-size="10.00">Truncated</text>
</a>
</g>
</g>
<!-- Node11&#45;&gt;Node10 -->
<g id="edge2" class="edge">
<title>Node11&#45;&gt;Node10</title>
<g id="a_edge2"><a xlink:title=" ">
<path fill="none" stroke="#63b8ff" d="M32.75,-121.15C32.75,-109.32 32.75,-95.04 32.75,-86.02"/>
<polygon fill="#63b8ff" stroke="#63b8ff" points="29.25,-121.14 32.75,-131.14 36.25,-121.14 29.25,-121.14"/>
</a>
</g>
</g>
<!-- Node13 -->
<g id="node4" class="node">
<title>Node13</title>
<g id="a_node4"><a xlink:title=" ">
<polygon fill="white" stroke="#666666" points="164,-85.75 83.5,-85.75 83.5,-66.5 164,-66.5 164,-85.75"/>
<text text-anchor="middle" x="123.75" y="-72.25" font-family="Helvetica,sans-Serif" font-size="10.00">ProtectedBase</text>
</a>
</g>
</g>
<!-- Node13&#45;&gt;Node9 -->
<g id="edge3" class="edge">
<title>Node13&#45;&gt;Node9</title>
<g id="a_edge3"><a xlink:title=" ">
<path fill="none" stroke="darkgreen" d="M153.46,-61.34C180.58,-48.75 219.89,-30.51 243.23,-19.68"/>
<polygon fill="darkgreen" stroke="darkgreen" points="152.34,-58 144.74,-65.38 155.29,-64.35 152.34,-58"/>
</a>
</g>
</g>
<!-- Node14 -->
<g id="node5" class="node">
<title>Node14</title>
<g id="a_node5"><a xlink:title=" ">
<polygon fill="white" stroke="#666666" points="251.38,-85.75 182.12,-85.75 182.12,-66.5 251.38,-66.5 251.38,-85.75"/>
<text text-anchor="middle" x="216.75" y="-72.25" font-family="Helvetica,sans-Serif" font-size="10.00">PrivateBase</text>
</a>
</g>
</g>
<!-- Node14&#45;&gt;Node9 -->
<g id="edge4" class="edge">
<title>Node14&#45;&gt;Node9</title>
<g id="a_edge4"><a xlink:title=" ">
<path fill="none" stroke="#8b1a1a" d="M229.76,-56.88C238.48,-44.66 249.56,-29.11 256.41,-19.52"/>
<polygon fill="#8b1a1a" stroke="#8b1a1a" points="226.98,-54.75 224.02,-64.92 232.68,-58.81 226.98,-54.75"/>
</a>
</g>
</g>
<!-- Node15 -->
<g id="Node000015" class="node">
<title>Node15</title>
<g id="a_Node000015"><a xlink:title=" ">
<polygon fill="#e0e0e0" stroke="#999999" points="350.38,-85.75 269.12,-85.75 269.12,-66.5 350.38,-66.5 350.38,-85.75"/>
<text text-anchor="middle" x="309.75" y="-72.25" font-family="Helvetica,sans-Serif" font-size="10.00">Undocumented</text>
</a>
</g>
</g>
<!-- Node15&#45;&gt;Node9 -->
<g id="edge5" class="edge">
<title>Node15&#45;&gt;Node9</title>
<g id="a_edge5"><a xlink:title=" ">
<path fill="none" stroke="#63b8ff" d="M296.45,-56.88C287.55,-44.66 276.22,-29.11 269.23,-19.52"/>
<polygon fill="#63b8ff" stroke="#63b8ff" points="293.61,-58.91 302.32,-64.93 299.26,-54.79 293.61,-58.91"/>
</a>
</g>
</g>
<!-- Node16 -->
<g id="node7" class="node">
<title>Node16</title>
<g id="a_node7"><a xlink:title=" ">
<polygon fill="white" stroke="#666666" points="439.5,-85.75 368,-85.75 368,-66.5 439.5,-66.5 439.5,-85.75"/>
<text text-anchor="middle" x="403.75" y="-72.25" font-family="Helvetica,sans-Serif" font-size="10.00">Templ&lt; int &gt;</text>
</a>
</g>
</g>
<!-- Node16&#45;&gt;Node9 -->
<g id="edge6" class="edge">
<title>Node16&#45;&gt;Node9</title>
<g id="a_edge6"><a xlink:title=" ">
<path fill="none" stroke="#63b8ff" d="M373.61,-61.34C346.1,-48.75 306.23,-30.51 282.55,-19.68"/>
<polygon fill="#63b8ff" stroke="#63b8ff" points="371.92,-64.41 382.47,-65.39 374.83,-58.05 371.92,-64.41"/>
</a>
</g>
</g>
<!-- Node17 -->
<g id="node8" class="node">
<title>Node17</title>
<g id="a_node8"><a xlink:title=" ">
<polygon fill="white" stroke="#666666" points="437.25,-152.25 370.25,-152.25 370.25,-133 437.25,-133 437.25,-152.25"/>
<text text-anchor="middle" x="403.75" y="-138.75" font-family="Helvetica,sans-Serif" font-size="10.00">Templ&lt; T &gt;</text>
</a>
</g>
</g>
<!-- Node17&#45;&gt;Node16 -->
<g id="edge7" class="edge">
<title>Node17&#45;&gt;Node16</title>
<g id="a_edge7"><a xlink:title=" ">
<path fill="none" stroke="orange" stroke-dasharray="5,2" d="M403.75,-121.15C403.75,-109.32 403.75,-95.04 403.75,-86.02"/>
<polygon fill="orange" stroke="orange" points="400.25,-121.14 403.75,-131.14 407.25,-121.14 400.25,-121.14"/>
</a>
</g>
<text text-anchor="middle" x="418" y="-105.5" font-family="Helvetica,sans-Serif" font-size="10.00" fill="grey">&lt; int &gt;</text>
</g>
<!-- Node18 -->
<g id="node9" class="node">
<title>Node18</title>
<g id="a_node9"><a xlink:title=" ">
<polygon fill="white" stroke="#666666" points="496,-85.75 457.5,-85.75 457.5,-66.5 496,-66.5 496,-85.75"/>
<text text-anchor="middle" x="476.75" y="-72.25" font-family="Helvetica,sans-Serif" font-size="10.00">Used</text>
</a>
</g>
</g>
<!-- Node18&#45;&gt;Node9 -->
<g id="edge8" class="edge">
<title>Node18&#45;&gt;Node9</title>
<g id="a_edge8"><a xlink:title=" ">
<path fill="none" stroke="#9a32cd" stroke-dasharray="5,2" d="M446.52,-65.84C385.15,-47.19 324.13,-28.93 289.88,-18.71"/>
<polygon fill="#9a32cd" stroke="#9a32cd" points="445.14,-69.07 455.73,-68.64 447.18,-62.38 445.14,-69.07"/>
</a>
</g>
<text text-anchor="middle" x="416.38" y="-39" font-family="Helvetica,sans-Serif" font-size="10.00" fill="grey">m_usedClass</text>
</g>
</g>
</svg>
