<?xml version="1.0" encoding="UTF-8" standalone="no"?>
<!DOCTYPE svg PUBLIC "-//W3C//DTD SVG 1.1//EN"
 "http://www.w3.org/Graphics/SVG/1.1/DTD/svg11.dtd">
<!-- Generated by graphviz version 9.0.0 (20230911.1827)
 -->
<!-- Title: Graphical Class Hierarchy Pages: 1 -->
<svg width="342pt" height="110pt"
 viewBox="0.00 0.00 342.25 109.75" xmlns="http://www.w3.org/2000/svg" xmlns:xlink="http://www.w3.org/1999/xlink">
<g id="graph0" class="graph" transform="scale(1 1) rotate(0) translate(4 105.75)">
<title>Graphical Class Hierarchy</title>
<!-- Node0 -->
<g id="Node000000" class="node">
<title>Node0</title>
<g id="a_Node000000"><a xlink:title=" ">
<polygon fill="#e0e0e0" stroke="#999999" points="145.75,-60.5 0,-60.5 0,-41.25 145.75,-41.25 145.75,-60.5"/>
<text text-anchor="middle" x="72.88" y="-47" font-family="Helvetica,sans-Serif" font-size="10.00">HL2ResearchModeControllerT</text>
</a>
</g>
</g>
<!-- Node1 -->
<g id="Node000001" class="node">
<title>Node1</title>
<g id="a_Node000001"><a xlink:href="structwinrt_1_1_h_l2_dino_plugin_1_1factory__implementation_1_1_h_l2_research_mode_controller.html" target="_top" xlink:title=" ">
<polygon fill="white" stroke="#666666" points="330.88,-101.75 185.12,-101.75 185.12,-60 330.88,-60 330.88,-101.75"/>
<text text-anchor="start" x="193.12" y="-88.25" font-family="Helvetica,sans-Serif" font-size="10.00">winrt::HL2DinoPlugin</text>
<text text-anchor="start" x="193.12" y="-77" font-family="Helvetica,sans-Serif" font-size="10.00">::factory_implementation</text>
<text text-anchor="middle" x="258" y="-65.75" font-family="Helvetica,sans-Serif" font-size="10.00">::HL2ResearchModeController</text>
</a>
</g>
</g>
<!-- Node0&#45;&gt;Node1 -->
<g id="edge1_Node000000_Node000001" class="edge">
<title>Node0&#45;&gt;Node1</title>
<g id="a_edge1_Node000000_Node000001"><a xlink:title=" ">
<path fill="none" stroke="#63b8ff" d="M146.91,-62.84C159.37,-64.88 172.32,-67 184.77,-69.04"/>
<polygon fill="#63b8ff" stroke="#63b8ff" points="147.55,-59.4 137.11,-61.23 146.41,-66.31 147.55,-59.4"/>
</a>
</g>
</g>
<!-- Node2 -->
<g id="Node000002" class="node">
<title>Node2</title>
<g id="a_Node000002"><a xlink:href="structwinrt_1_1_h_l2_dino_plugin_1_1implementation_1_1_h_l2_research_mode_controller.html" target="_top" xlink:title=" ">
<polygon fill="white" stroke="#666666" points="334.25,-41.75 181.75,-41.75 181.75,0 334.25,0 334.25,-41.75"/>
<text text-anchor="start" x="189.75" y="-28.25" font-family="Helvetica,sans-Serif" font-size="10.00">winrt::HL2DinoPlugin</text>
<text text-anchor="start" x="189.75" y="-17" font-family="Helvetica,sans-Serif" font-size="10.00">::implementation::HL2Research</text>
<text text-anchor="middle" x="258" y="-5.75" font-family="Helvetica,sans-Serif" font-size="10.00">ModeController</text>
</a>
</g>
</g>
<!-- Node0&#45;&gt;Node2 -->
<g id="edge2_Node000000_Node000002" class="edge">
<title>Node0&#45;&gt;Node2</title>
<g id="a_edge2_Node000000_Node000002"><a xlink:title=" ">
<path fill="none" stroke="#63b8ff" d="M146.87,-38.92C158.27,-37.05 170.09,-35.11 181.55,-33.24"/>
<polygon fill="#63b8ff" stroke="#63b8ff" points="146.41,-35.44 137.11,-40.52 147.55,-42.35 146.41,-35.44"/>
</a>
</g>
</g>
</g>
</svg>
