<?xml version="1.0" encoding="UTF-8" standalone="no"?>
<!DOCTYPE svg PUBLIC "-//W3C//DTD SVG 1.1//EN"
 "http://www.w3.org/Graphics/SVG/1.1/DTD/svg11.dtd">
<!-- Generated by graphviz version 9.0.0 (20230911.1827)
 -->
<!-- Title: winrt::HL2DinoPlugin::implementation::HL2ResearchModeController Pages: 1 -->
<svg width="274pt" height="128pt"
 viewBox="0.00 0.00 273.62 127.50" xmlns="http://www.w3.org/2000/svg" xmlns:xlink="http://www.w3.org/1999/xlink">
<g id="graph0" class="graph" transform="scale(1 1) rotate(0) translate(4 123.5)">
<title>winrt::HL2DinoPlugin::implementation::HL2ResearchModeController</title>
<!-- Node1 -->
<g id="Node000001" class="node">
<title>Node1</title>
<g id="a_Node000001"><a xlink:title=" ">
<polygon fill="#999999" stroke="#666666" points="229.12,-41.75 76.62,-41.75 76.62,0 229.12,0 229.12,-41.75"/>
<text text-anchor="start" x="84.62" y="-28.25" font-family="Helvetica,sans-Serif" font-size="10.00">winrt::HL2DinoPlugin</text>
<text text-anchor="start" x="84.62" y="-17" font-family="Helvetica,sans-Serif" font-size="10.00">::implementation::HL2Research</text>
<text text-anchor="middle" x="152.88" y="-5.75" font-family="Helvetica,sans-Serif" font-size="10.00">ModeController</text>
</a>
</g>
</g>
<!-- Node2 -->
<g id="Node000002" class="node">
<title>Node2</title>
<g id="a_Node000002"><a xlink:title=" ">
<polygon fill="white" stroke="#bfbfbf" points="163.75,-119.5 0,-119.5 0,-89 163.75,-89 163.75,-119.5"/>
<text text-anchor="start" x="8" y="-106" font-family="Helvetica,sans-Serif" font-size="10.00">HL2ResearchModeController</text>
<text text-anchor="middle" x="81.88" y="-94.75" font-family="Helvetica,sans-Serif" font-size="10.00">T&lt; HL2ResearchModeController &gt;</text>
</a>
</g>
</g>
<!-- Node2&#45;&gt;Node1 -->
<g id="edge1_Node000001_Node000002" class="edge">
<title>Node2&#45;&gt;Node1</title>
<g id="a_edge1_Node000001_Node000002"><a xlink:title=" ">
<path fill="none" stroke="#63b8ff" d="M102.06,-80.12C112.51,-68.14 125.16,-53.64 135.22,-42.1"/>
<polygon fill="#63b8ff" stroke="#63b8ff" points="99.5,-77.73 95.56,-87.56 104.78,-82.33 99.5,-77.73"/>
</a>
</g>
</g>
<!-- Node3 -->
<g id="Node000003" class="node">
<title>Node3</title>
<g id="a_Node000003"><a xlink:href="class_holo2_i_r_tracker.html" target="_top" xlink:title=" ">
<polygon fill="white" stroke="#bfbfbf" points="265.62,-113.88 182.12,-113.88 182.12,-94.62 265.62,-94.62 265.62,-113.88"/>
<text text-anchor="middle" x="223.88" y="-100.38" font-family="Helvetica,sans-Serif" font-size="10.00">Holo2IRTracker</text>
</a>
</g>
</g>
<!-- Node3&#45;&gt;Node1 -->
<g id="edge2_Node000001_Node000003" class="edge">
<title>Node3&#45;&gt;Node1</title>
<g id="a_edge2_Node000001_Node000003"><a xlink:title=" ">
<path fill="none" stroke="#9a32cd" stroke-dasharray="5,2" d="M208.68,-85.84C197.49,-73.01 182.25,-55.54 170.52,-42.1"/>
<polygon fill="#9a32cd" stroke="#9a32cd" points="205.8,-87.86 215.01,-93.09 211.07,-83.25 205.8,-87.86"/>
</a>
</g>
<text text-anchor="middle" x="223.5" y="-61.5" font-family="Helvetica,sans-Serif" font-size="10.00" fill="grey"> m_IRTracker</text>
</g>
</g>
</svg>
